<svg xmlns="http://www.w3.org/2000/svg" xmlns:xlink="http://www.w3.org/1999/xlink" width="50" zoomAndPan="magnify" viewBox="0 0 37.5 37.499999" height="50" preserveAspectRatio="xMidYMid meet" version="1.0"><defs><g/><clipPath id="fa25d937c2"><path d="M 0 0 L 37.007812 0 L 37.007812 37.007812 L 0 37.007812 Z M 0 0 " clip-rule="nonzero"/></clipPath><clipPath id="389506613f"><path d="M 20 18 L 30.570312 18 L 30.570312 28 L 20 28 Z M 20 18 " clip-rule="nonzero"/></clipPath><clipPath id="26cdf96289"><path d="M 28 4 L 30.570312 4 L 30.570312 6 L 28 6 Z M 28 4 " clip-rule="nonzero"/></clipPath><clipPath id="12f6415490"><path d="M 6.144531 11 L 16 11 L 16 23 L 6.144531 23 Z M 6.144531 11 " clip-rule="nonzero"/></clipPath><clipPath id="f1657e75eb"><path d="M 6.144531 4 L 25 4 L 25 24 L 6.144531 24 Z M 6.144531 4 " clip-rule="nonzero"/></clipPath><clipPath id="110a168a53"><path d="M 6.144531 3.699219 L 30.570312 3.699219 L 30.570312 28.125 L 6.144531 28.125 Z M 6.144531 3.699219 " clip-rule="nonzero"/></clipPath></defs><g clip-path="url(#fa25d937c2)"><path fill="#ffffff" d="M 0 0 L 37.007812 0 L 37.007812 37.007812 L 0 37.007812 Z M 0 0 " fill-opacity="1" fill-rule="nonzero"/><path fill="#ddbc8a" d="M 0 0 L 37.007812 0 L 37.007812 37.007812 L 0 37.007812 Z M 0 0 " fill-opacity="1" fill-rule="nonzero"/></g><g clip-path="url(#389506613f)"><path fill="#cf9e76" d="M 30.175781 22.992188 L 30.175781 23.003906 C 30.175781 24.3125 29.648438 25.492188 28.792969 26.347656 C 27.9375 27.203125 26.753906 27.730469 25.445312 27.730469 C 22.835938 27.730469 20.71875 25.613281 20.71875 23.003906 L 20.71875 22.992188 C 20.71875 22.523438 20.789062 22.058594 20.925781 21.617188 C 21.144531 20.886719 21.546875 20.207031 22.101562 19.652344 L 23.476562 18.277344 L 27.417969 18.277344 L 28.792969 19.652344 C 29.675781 20.535156 30.175781 21.738281 30.175781 22.992188 " fill-opacity="1" fill-rule="nonzero"/></g><g clip-path="url(#26cdf96289)"><path fill="#ff826e" d="M 29.035156 5.585938 C 28.777344 5.457031 28.597656 5.191406 28.597656 4.882812 C 28.597656 4.449219 28.953125 4.09375 29.386719 4.09375 C 29.820312 4.09375 30.175781 4.449219 30.175781 4.882812 C 30.175781 5.316406 29.820312 5.671875 29.386719 5.671875 C 29.261719 5.671875 29.140625 5.644531 29.035156 5.585938 " fill-opacity="1" fill-rule="nonzero"/></g><path fill="#d3a06c" d="M 25.839844 16.699219 L 23.871094 16.699219 L 21.746094 13.863281 C 21.589844 13.660156 21.507812 13.410156 21.507812 13.15625 C 21.507812 12.828125 21.640625 12.53125 21.855469 12.320312 C 22.066406 12.105469 22.363281 11.972656 22.691406 11.972656 C 23.378906 11.972656 23.378906 12.761719 24.070312 12.761719 C 24.714844 12.761719 24.753906 12.070312 25.316406 11.980469 C 25.355469 11.976562 25.398438 11.972656 25.441406 11.972656 C 26.136719 11.972656 26.136719 12.761719 26.824219 12.761719 C 27.171875 12.761719 27.339844 12.5625 27.515625 12.367188 C 27.6875 12.171875 27.859375 11.972656 28.203125 11.972656 C 28.53125 11.972656 28.828125 12.105469 29.039062 12.320312 C 29.253906 12.53125 29.386719 12.828125 29.386719 13.15625 C 29.386719 13.410156 29.304688 13.660156 29.148438 13.863281 L 27.023438 16.699219 L 25.839844 16.699219 " fill-opacity="1" fill-rule="nonzero"/><path fill="#fcd770" d="M 27.8125 17.09375 L 27.8125 17.882812 C 27.8125 18.097656 27.632812 18.277344 27.417969 18.277344 L 23.476562 18.277344 C 23.261719 18.277344 23.082031 18.097656 23.082031 17.882812 L 23.082031 17.09375 C 23.082031 16.878906 23.261719 16.699219 23.476562 16.699219 L 27.417969 16.699219 C 27.632812 16.699219 27.8125 16.878906 27.8125 17.09375 " fill-opacity="1" fill-rule="nonzero"/><path fill="#ff826e" d="M 27.375 8.90625 C 27.632812 9.035156 27.8125 9.300781 27.8125 9.609375 C 27.8125 10.042969 27.457031 10.398438 27.023438 10.398438 C 26.589844 10.398438 26.234375 10.042969 26.234375 9.609375 C 26.234375 9.5625 26.238281 9.515625 26.246094 9.472656 C 26.3125 9.101562 26.636719 8.820312 27.023438 8.820312 C 27.148438 8.820312 27.269531 8.847656 27.375 8.90625 " fill-opacity="1" fill-rule="nonzero"/><path fill="#b4dd7f" d="M 25.316406 11.980469 C 24.753906 12.070312 24.714844 12.761719 24.070312 12.761719 C 23.378906 12.761719 23.378906 11.972656 22.691406 11.972656 C 22.363281 11.972656 22.066406 12.105469 21.855469 12.320312 C 21.640625 12.53125 21.507812 12.828125 21.507812 13.15625 C 21.507812 13.410156 21.589844 13.660156 21.746094 13.863281 L 23.871094 16.699219 L 23.476562 16.699219 C 23.261719 16.699219 23.082031 16.878906 23.082031 17.09375 L 23.082031 17.882812 C 23.082031 18.097656 23.261719 18.277344 23.476562 18.277344 L 22.101562 19.652344 C 21.546875 20.207031 21.144531 20.886719 20.925781 21.617188 C 20.042969 22.15625 19.0625 22.558594 18.019531 22.785156 C 17.253906 21.980469 16.78125 20.894531 16.78125 19.699219 C 16.78125 18.769531 17.054688 17.867188 17.570312 17.09375 C 18.082031 16.320312 18.355469 15.421875 18.355469 14.492188 L 18.355469 13.765625 C 18.355469 13.695312 18.347656 13.621094 18.335938 13.554688 L 18.335938 13.550781 C 18.34375 13.550781 18.347656 13.550781 18.355469 13.550781 C 18.789062 13.550781 19.144531 13.195312 19.144531 12.761719 C 19.144531 12.445312 18.953125 12.171875 18.683594 12.042969 L 20 9.144531 C 20.097656 9.191406 20.207031 9.214844 20.324219 9.214844 C 20.710938 9.214844 21.035156 8.9375 21.101562 8.566406 L 24.351562 9.136719 C 24.816406 10.011719 25.148438 10.96875 25.316406 11.980469 " fill-opacity="1" fill-rule="nonzero"/><path fill="#ff826e" d="M 20.667969 7.71875 C 20.933594 7.847656 21.113281 8.117188 21.113281 8.429688 C 21.113281 8.476562 21.109375 8.523438 21.101562 8.566406 C 21.035156 8.9375 20.710938 9.214844 20.324219 9.214844 C 20.207031 9.214844 20.097656 9.191406 20 9.144531 C 19.726562 9.019531 19.539062 8.742188 19.539062 8.429688 C 19.539062 7.992188 19.890625 7.640625 20.324219 7.640625 C 20.449219 7.640625 20.566406 7.667969 20.667969 7.71875 " fill-opacity="1" fill-rule="nonzero"/><path fill="#ff826e" d="M 17.742188 12.269531 C 17.886719 12.085938 18.109375 11.972656 18.355469 11.972656 C 18.476562 11.972656 18.585938 11.996094 18.683594 12.042969 C 18.953125 12.171875 19.144531 12.445312 19.144531 12.761719 C 19.144531 13.195312 18.789062 13.550781 18.355469 13.550781 C 18.347656 13.550781 18.34375 13.550781 18.335938 13.550781 C 17.910156 13.535156 17.570312 13.1875 17.570312 12.761719 C 17.570312 12.578125 17.632812 12.402344 17.742188 12.269531 " fill-opacity="1" fill-rule="nonzero"/><path fill="#b4dd7f" d="M 17.960938 4.304688 L 17.960938 5.515625 C 17.960938 6.324219 17.472656 7.050781 16.726562 7.347656 L 16.472656 7.449219 C 16.15625 7.574219 15.882812 7.777344 15.667969 8.046875 L 15.007812 8.871094 C 14.976562 8.914062 14.941406 8.953125 14.902344 8.992188 C 14.769531 8.886719 14.597656 8.820312 14.417969 8.820312 C 13.988281 8.820312 13.632812 9.171875 13.628906 9.601562 C 13.578125 9.605469 13.523438 9.609375 13.472656 9.609375 L 12.25 9.609375 C 11.632812 9.609375 11.046875 9.320312 10.675781 8.820312 C 10.304688 8.324219 9.71875 8.035156 9.097656 8.035156 L 8.320312 8.035156 C 10.03125 5.648438 12.832031 4.09375 15.992188 4.09375 C 16.667969 4.09375 17.328125 4.164062 17.960938 4.304688 " fill-opacity="1" fill-rule="nonzero"/><g clip-path="url(#12f6415490)"><path fill="#b4dd7f" d="M 15.203125 15.664062 L 15.203125 16.066406 C 15.203125 16.957031 14.761719 17.785156 14.023438 18.277344 C 13.285156 18.769531 12.839844 19.597656 12.839844 20.484375 C 12.839844 21.136719 12.683594 21.75 12.410156 22.300781 C 8.964844 20.886719 6.539062 17.5 6.539062 13.550781 C 6.539062 13.011719 6.582031 12.484375 6.671875 11.972656 L 8.507812 11.972656 C 8.507812 12.40625 8.863281 12.761719 9.296875 12.761719 C 9.730469 12.761719 10.082031 12.40625 10.082031 11.972656 L 10.691406 11.972656 C 11.574219 11.972656 12.433594 12.261719 13.144531 12.792969 L 14.144531 13.542969 C 14.8125 14.042969 15.203125 14.828125 15.203125 15.664062 " fill-opacity="1" fill-rule="nonzero"/></g><path fill="#ff826e" d="M 15.203125 9.609375 C 15.203125 9.792969 15.140625 9.96875 15.03125 10.101562 C 14.886719 10.285156 14.664062 10.398438 14.417969 10.398438 C 14.101562 10.398438 13.824219 10.207031 13.703125 9.941406 C 13.65625 9.839844 13.628906 9.726562 13.628906 9.609375 C 13.628906 9.605469 13.628906 9.605469 13.628906 9.601562 C 13.632812 9.171875 13.988281 8.820312 14.417969 8.820312 C 14.597656 8.820312 14.769531 8.886719 14.902344 8.992188 C 15.085938 9.132812 15.203125 9.355469 15.203125 9.609375 " fill-opacity="1" fill-rule="nonzero"/><g clip-path="url(#f1657e75eb)"><path fill="#69d6f4" d="M 24.351562 9.136719 C 23.738281 7.96875 22.882812 6.941406 21.855469 6.128906 C 20.734375 5.242188 19.410156 4.605469 17.960938 4.304688 L 17.960938 5.515625 C 17.960938 6.324219 17.472656 7.050781 16.726562 7.347656 L 16.472656 7.449219 C 16.15625 7.574219 15.882812 7.777344 15.667969 8.046875 L 15.007812 8.871094 C 14.976562 8.914062 14.941406 8.953125 14.902344 8.992188 C 15.085938 9.132812 15.203125 9.355469 15.203125 9.609375 C 15.203125 9.792969 15.140625 9.96875 15.03125 10.101562 C 14.886719 10.285156 14.664062 10.398438 14.417969 10.398438 C 14.101562 10.398438 13.824219 10.207031 13.703125 9.941406 C 13.65625 9.839844 13.628906 9.726562 13.628906 9.609375 C 13.628906 9.605469 13.628906 9.605469 13.628906 9.601562 C 13.578125 9.605469 13.523438 9.609375 13.472656 9.609375 L 12.25 9.609375 C 11.632812 9.609375 11.046875 9.320312 10.675781 8.820312 C 10.304688 8.324219 9.71875 8.035156 9.097656 8.035156 L 8.316406 8.035156 C 7.488281 9.179688 6.910156 10.519531 6.671875 11.972656 L 8.507812 11.972656 C 8.507812 11.539062 8.863281 11.183594 9.296875 11.183594 C 9.609375 11.183594 9.886719 11.375 10.007812 11.640625 C 10.054688 11.742188 10.082031 11.855469 10.082031 11.972656 L 10.691406 11.972656 C 11.574219 11.972656 12.433594 12.261719 13.144531 12.792969 L 14.144531 13.542969 C 14.8125 14.042969 15.203125 14.828125 15.203125 15.664062 L 15.203125 16.066406 C 15.203125 16.957031 14.761719 17.785156 14.023438 18.277344 C 13.285156 18.769531 12.839844 19.597656 12.839844 20.484375 C 12.839844 21.136719 12.683594 21.75 12.410156 22.300781 C 13.519531 22.757812 14.726562 23.003906 15.992188 23.003906 C 16.691406 23.003906 17.367188 22.929688 18.019531 22.785156 C 17.253906 21.980469 16.78125 20.894531 16.78125 19.699219 C 16.78125 18.769531 17.054688 17.867188 17.570312 17.09375 C 18.082031 16.320312 18.355469 15.421875 18.355469 14.492188 L 18.355469 13.765625 C 18.355469 13.695312 18.347656 13.621094 18.335938 13.554688 L 18.335938 13.550781 C 17.910156 13.535156 17.570312 13.1875 17.570312 12.761719 C 17.570312 12.578125 17.632812 12.402344 17.742188 12.269531 C 17.886719 12.085938 18.109375 11.972656 18.355469 11.972656 C 18.476562 11.972656 18.585938 11.996094 18.683594 12.042969 L 20 9.144531 C 19.726562 9.019531 19.539062 8.742188 19.539062 8.429688 C 19.539062 7.992188 19.890625 7.640625 20.324219 7.640625 C 20.449219 7.640625 20.566406 7.667969 20.667969 7.71875 C 20.933594 7.847656 21.113281 8.117188 21.113281 8.429688 C 21.113281 8.476562 21.109375 8.523438 21.101562 8.566406 L 24.351562 9.136719 " fill-opacity="1" fill-rule="nonzero"/></g><path fill="#ff826e" d="M 10.007812 11.640625 C 10.054688 11.742188 10.082031 11.855469 10.082031 11.972656 C 10.082031 12.40625 9.730469 12.761719 9.296875 12.761719 C 8.863281 12.761719 8.507812 12.40625 8.507812 11.972656 C 8.507812 11.539062 8.863281 11.183594 9.296875 11.183594 C 9.609375 11.183594 9.886719 11.375 10.007812 11.640625 " fill-opacity="1" fill-rule="nonzero"/><path fill="#000000" d="M 25.445312 21.820312 C 25.664062 21.820312 25.839844 22 25.839844 22.214844 L 26.628906 22.214844 C 26.628906 21.703125 26.296875 21.269531 25.839844 21.105469 L 25.839844 20.246094 L 25.054688 20.246094 L 25.054688 21.105469 C 24.597656 21.269531 24.265625 21.703125 24.265625 22.214844 C 24.265625 22.867188 24.792969 23.398438 25.445312 23.398438 C 25.664062 23.398438 25.839844 23.574219 25.839844 23.792969 C 25.839844 24.007812 25.664062 24.1875 25.445312 24.1875 C 25.230469 24.1875 25.054688 24.007812 25.054688 23.792969 L 24.265625 23.792969 C 24.265625 24.304688 24.597656 24.738281 25.054688 24.902344 L 25.054688 25.761719 L 25.839844 25.761719 L 25.839844 24.902344 C 26.296875 24.738281 26.628906 24.304688 26.628906 23.792969 C 26.628906 23.140625 26.101562 22.609375 25.445312 22.609375 C 25.230469 22.609375 25.054688 22.433594 25.054688 22.214844 C 25.054688 22 25.230469 21.820312 25.445312 21.820312 " fill-opacity="1" fill-rule="nonzero"/><g clip-path="url(#110a168a53)"><path fill="#000000" d="M 25.445312 27.335938 C 23.058594 27.335938 21.113281 25.394531 21.113281 22.992188 C 21.113281 21.835938 21.566406 20.746094 22.382812 19.925781 L 23.640625 18.671875 L 24.265625 18.671875 L 24.265625 17.882812 L 23.476562 17.882812 L 23.476562 17.09375 L 27.417969 17.09375 L 27.417969 17.882812 L 25.054688 17.882812 L 25.054688 18.671875 L 27.253906 18.671875 L 28.511719 19.925781 C 29.328125 20.746094 29.78125 21.835938 29.78125 23.003906 C 29.78125 25.394531 27.835938 27.335938 25.445312 27.335938 Z M 18.15625 22.34375 C 17.523438 21.601562 17.175781 20.671875 17.175781 19.695312 C 17.175781 18.847656 17.421875 18.019531 17.894531 17.3125 C 18.453125 16.472656 18.75 15.5 18.75 14.492188 L 18.75 13.871094 C 19.207031 13.707031 19.539062 13.273438 19.539062 12.761719 C 19.539062 12.425781 19.398438 12.128906 19.175781 11.910156 L 20.226562 9.597656 C 20.261719 9.601562 20.292969 9.609375 20.324219 9.609375 C 20.765625 9.609375 21.144531 9.363281 21.347656 9.007812 L 24.097656 9.492188 C 24.445312 10.191406 24.703125 10.945312 24.863281 11.742188 C 24.6875 11.851562 24.558594 11.996094 24.460938 12.109375 C 24.289062 12.304688 24.21875 12.367188 24.066406 12.367188 C 23.914062 12.367188 23.847656 12.304688 23.675781 12.109375 C 23.492188 11.898438 23.210938 11.578125 22.691406 11.578125 C 21.820312 11.578125 21.113281 12.285156 21.113281 13.15625 C 21.113281 13.492188 21.226562 13.832031 21.429688 14.101562 L 23.140625 16.386719 C 22.875 16.511719 22.691406 16.78125 22.691406 17.09375 L 22.691406 17.882812 C 22.691406 18.058594 22.75 18.21875 22.847656 18.351562 L 21.828125 19.371094 C 21.261719 19.933594 20.847656 20.609375 20.601562 21.347656 C 19.835938 21.800781 19.011719 22.132812 18.15625 22.34375 Z M 12.933594 22.078125 C 13.132812 21.566406 13.234375 21.035156 13.234375 20.484375 C 13.234375 19.726562 13.613281 19.023438 14.242188 18.605469 C 15.089844 18.039062 15.597656 17.089844 15.597656 16.066406 L 15.597656 15.664062 C 15.597656 14.710938 15.144531 13.796875 14.378906 13.226562 L 13.382812 12.476562 C 12.707031 11.972656 11.894531 11.664062 11.054688 11.59375 L 13.570312 10.433594 C 13.789062 10.65625 14.085938 10.792969 14.417969 10.792969 C 14.644531 10.792969 14.855469 10.722656 15.039062 10.613281 L 17.242188 12.375 C 17.203125 12.5 17.175781 12.625 17.175781 12.761719 C 17.175781 13.273438 17.503906 13.707031 17.960938 13.871094 L 17.960938 14.492188 C 17.960938 15.34375 17.714844 16.167969 17.242188 16.875 C 16.683594 17.714844 16.386719 18.6875 16.386719 19.695312 C 16.386719 20.71875 16.707031 21.691406 17.292969 22.515625 C 16.863281 22.574219 16.429688 22.609375 15.992188 22.609375 C 14.921875 22.609375 13.890625 22.421875 12.933594 22.078125 Z M 6.933594 13.550781 C 6.933594 13.148438 6.960938 12.753906 7.011719 12.367188 L 8.1875 12.367188 C 8.347656 12.824219 8.785156 13.15625 9.296875 13.15625 C 9.808594 13.15625 10.242188 12.824219 10.40625 12.367188 L 10.6875 12.367188 C 11.484375 12.367188 12.273438 12.628906 12.910156 13.109375 L 13.90625 13.855469 C 14.472656 14.28125 14.8125 14.957031 14.8125 15.664062 L 14.8125 16.066406 C 14.8125 16.824219 14.433594 17.527344 13.804688 17.949219 C 12.953125 18.515625 12.445312 19.464844 12.445312 20.484375 C 12.445312 20.929688 12.367188 21.363281 12.207031 21.777344 C 9.097656 20.339844 6.933594 17.195312 6.933594 13.550781 Z M 9.691406 11.972656 C 9.691406 12.191406 9.511719 12.367188 9.296875 12.367188 C 9.078125 12.367188 8.902344 12.191406 8.902344 11.972656 C 8.902344 11.757812 9.078125 11.578125 9.296875 11.578125 C 9.511719 11.578125 9.691406 11.757812 9.691406 11.972656 Z M 10.140625 11.148438 C 9.925781 10.929688 9.625 10.792969 9.296875 10.792969 C 8.785156 10.792969 8.347656 11.121094 8.1875 11.578125 L 7.152344 11.578125 C 7.40625 10.433594 7.878906 9.367188 8.523438 8.429688 L 9.097656 8.429688 C 9.589844 8.429688 10.0625 8.664062 10.359375 9.058594 C 10.804688 9.648438 11.511719 10.003906 12.25 10.003906 L 12.621094 10.003906 Z M 15.992188 4.488281 C 16.53125 4.488281 17.054688 4.535156 17.570312 4.625 L 17.570312 5.519531 C 17.570312 6.167969 17.179688 6.742188 16.578125 6.980469 L 16.328125 7.082031 C 15.949219 7.234375 15.617188 7.480469 15.359375 7.800781 L 14.800781 8.496094 C 14.679688 8.457031 14.550781 8.429688 14.417969 8.429688 C 13.90625 8.429688 13.46875 8.757812 13.308594 9.214844 L 12.25 9.214844 C 11.757812 9.214844 11.285156 8.980469 10.988281 8.585938 C 10.550781 8 9.859375 7.652344 9.132812 7.640625 C 10.792969 5.714844 13.253906 4.488281 15.992188 4.488281 Z M 20.324219 8.820312 C 20.109375 8.820312 19.933594 8.644531 19.933594 8.429688 C 19.933594 8.210938 20.109375 8.035156 20.324219 8.035156 C 20.542969 8.035156 20.71875 8.210938 20.71875 8.429688 C 20.71875 8.644531 20.542969 8.820312 20.324219 8.820312 Z M 14.8125 9.609375 C 14.8125 9.828125 14.632812 10.003906 14.417969 10.003906 C 14.199219 10.003906 14.023438 9.828125 14.023438 9.609375 C 14.023438 9.394531 14.199219 9.214844 14.417969 9.214844 C 14.632812 9.214844 14.8125 9.394531 14.8125 9.609375 Z M 18.355469 11.578125 C 18.128906 11.578125 17.917969 11.648438 17.734375 11.757812 L 15.53125 9.996094 C 15.570312 9.871094 15.597656 9.746094 15.597656 9.609375 C 15.597656 9.378906 15.53125 9.167969 15.417969 8.988281 L 15.976562 8.292969 C 16.144531 8.082031 16.367188 7.914062 16.621094 7.8125 L 16.871094 7.714844 C 17.773438 7.351562 18.355469 6.492188 18.355469 5.519531 L 18.355469 4.800781 C 19.414062 5.082031 20.394531 5.546875 21.265625 6.167969 C 21.027344 6.433594 20.824219 6.714844 20.660156 7.015625 C 20.613281 7.101562 20.554688 7.179688 20.5 7.261719 C 20.441406 7.253906 20.386719 7.246094 20.324219 7.246094 C 19.671875 7.246094 19.144531 7.777344 19.144531 8.429688 C 19.144531 8.761719 19.285156 9.0625 19.507812 9.277344 L 18.457031 11.589844 C 18.421875 11.585938 18.390625 11.578125 18.355469 11.578125 Z M 18.355469 13.15625 C 18.140625 13.15625 17.960938 12.976562 17.960938 12.761719 C 17.960938 12.542969 18.140625 12.367188 18.355469 12.367188 C 18.574219 12.367188 18.75 12.542969 18.75 12.761719 C 18.75 12.976562 18.574219 13.15625 18.355469 13.15625 Z M 23.585938 8.601562 L 21.488281 8.234375 C 21.449219 8.007812 21.347656 7.804688 21.203125 7.640625 C 21.253906 7.5625 21.304688 7.480469 21.347656 7.398438 C 21.492188 7.136719 21.675781 6.886719 21.886719 6.652344 C 22.542969 7.214844 23.113281 7.871094 23.585938 8.601562 Z M 25.839844 12.628906 C 26.035156 12.851562 26.300781 13.15625 26.824219 13.15625 C 27.347656 13.15625 27.625 12.835938 27.8125 12.628906 C 27.984375 12.429688 28.050781 12.367188 28.203125 12.367188 C 28.640625 12.367188 28.992188 12.722656 28.992188 13.15625 C 28.992188 13.324219 28.9375 13.492188 28.835938 13.628906 L 26.824219 16.308594 L 26.363281 16.308594 L 27.007812 14.050781 L 26.25 13.835938 L 25.542969 16.308594 L 25.351562 16.308594 L 24.644531 13.835938 L 23.886719 14.050781 L 24.53125 16.308594 L 24.070312 16.308594 L 22.058594 13.628906 C 21.957031 13.492188 21.902344 13.324219 21.902344 13.15625 C 21.902344 12.722656 22.253906 12.367188 22.691406 12.367188 C 22.84375 12.367188 22.910156 12.429688 23.082031 12.625 C 23.265625 12.835938 23.542969 13.15625 24.066406 13.15625 C 24.589844 13.15625 24.867188 12.835938 25.050781 12.625 C 25.222656 12.429688 25.292969 12.367188 25.445312 12.367188 C 25.597656 12.367188 25.667969 12.429688 25.839844 12.628906 Z M 27.023438 9.214844 C 27.238281 9.214844 27.417969 9.394531 27.417969 9.609375 C 27.417969 9.828125 27.238281 10.003906 27.023438 10.003906 C 26.804688 10.003906 26.628906 9.828125 26.628906 9.609375 C 26.628906 9.394531 26.804688 9.214844 27.023438 9.214844 Z M 29.386719 4.488281 C 29.605469 4.488281 29.78125 4.664062 29.78125 4.882812 C 29.78125 5.097656 29.605469 5.277344 29.386719 5.277344 C 29.167969 5.277344 28.992188 5.097656 28.992188 4.882812 C 28.992188 4.664062 29.167969 4.488281 29.386719 4.488281 Z M 28.046875 18.351562 C 28.144531 18.21875 28.203125 18.058594 28.203125 17.882812 L 28.203125 17.09375 C 28.203125 16.78125 28.019531 16.511719 27.753906 16.386719 L 29.464844 14.101562 C 29.667969 13.832031 29.78125 13.492188 29.78125 13.15625 C 29.78125 12.285156 29.074219 11.578125 28.203125 11.578125 C 27.679688 11.578125 27.402344 11.898438 27.21875 12.105469 C 27.046875 12.304688 26.976562 12.367188 26.824219 12.367188 C 26.671875 12.367188 26.601562 12.304688 26.429688 12.105469 C 26.273438 11.925781 26.039062 11.660156 25.636719 11.59375 C 25.503906 10.917969 25.300781 10.273438 25.039062 9.660156 L 25.859375 9.804688 C 25.953125 10.363281 26.4375 10.792969 27.023438 10.792969 C 27.675781 10.792969 28.203125 10.261719 28.203125 9.609375 C 28.203125 9.292969 28.078125 9.003906 27.871094 8.792969 L 29.242188 6.050781 C 29.292969 6.054688 29.335938 6.0625 29.386719 6.0625 C 30.039062 6.0625 30.570312 5.535156 30.570312 4.882812 C 30.570312 4.230469 30.039062 3.699219 29.386719 3.699219 C 28.734375 3.699219 28.203125 4.230469 28.203125 4.882812 C 28.203125 5.199219 28.332031 5.488281 28.539062 5.699219 L 27.167969 8.441406 C 27.117188 8.4375 27.070312 8.429688 27.023438 8.429688 C 26.582031 8.429688 26.203125 8.671875 26 9.03125 L 24.617188 8.785156 C 22.929688 5.714844 19.679688 3.699219 15.992188 3.699219 C 10.5625 3.699219 6.144531 8.117188 6.144531 13.550781 C 6.144531 18.980469 10.5625 23.398438 15.992188 23.398438 C 17.519531 23.398438 19.015625 23.039062 20.367188 22.367188 C 20.34375 22.578125 20.324219 22.789062 20.324219 23.003906 C 20.324219 25.828125 22.625 28.125 25.445312 28.125 C 28.269531 28.125 30.570312 25.828125 30.570312 22.992188 C 30.570312 21.625 30.035156 20.339844 29.066406 19.371094 L 28.046875 18.351562 " fill-opacity="1" fill-rule="nonzero"/></g><path fill="#000000" d="M 9.296875 15.914062 L 10.082031 15.914062 L 10.082031 15.125 L 9.296875 15.125 L 9.296875 15.914062 " fill-opacity="1" fill-rule="nonzero"/><path fill="#000000" d="M 11.265625 13.941406 L 11.265625 14.730469 L 12.054688 14.730469 L 12.054688 13.941406 L 11.265625 13.941406 " fill-opacity="1" fill-rule="nonzero"/><path fill="#000000" d="M 10.476562 18.671875 L 11.265625 18.671875 L 11.265625 17.882812 L 10.476562 17.882812 L 10.476562 18.671875 " fill-opacity="1" fill-rule="nonzero"/><path fill="#000000" d="M 13.628906 16.308594 L 12.839844 16.308594 L 12.839844 17.09375 L 13.628906 17.09375 L 13.628906 16.308594 " fill-opacity="1" fill-rule="nonzero"/><path fill="#000000" d="M 18.75 19.457031 L 19.539062 19.457031 L 19.539062 18.671875 L 18.75 18.671875 L 18.75 19.457031 " fill-opacity="1" fill-rule="nonzero"/><path fill="#000000" d="M 20.324219 16.699219 L 21.113281 16.699219 L 21.113281 15.914062 L 20.324219 15.914062 L 20.324219 16.699219 " fill-opacity="1" fill-rule="nonzero"/><path fill="#000000" d="M 14.023438 6.457031 L 13.234375 6.457031 L 13.234375 7.246094 L 14.023438 7.246094 L 14.023438 6.457031 " fill-opacity="1" fill-rule="nonzero"/><path fill="#000000" d="M 15.597656 5.277344 L 14.8125 5.277344 L 14.8125 6.0625 L 15.597656 6.0625 L 15.597656 5.277344 " fill-opacity="1" fill-rule="nonzero"/><g fill="#000000" fill-opacity="1"><g transform="translate(7.549102, 32.192191)"><g><path d="M 1.796875 -2.609375 L 1.796875 -2.265625 L 0.59375 -2.265625 L 0.59375 -1.546875 L 1.65625 -1.546875 L 1.65625 -1.1875 L 0.59375 -1.1875 L 0.59375 -0.359375 L 1.796875 -0.359375 L 1.796875 0 L 0.203125 0 L 0.203125 -2.609375 Z M 1.796875 -2.609375 "/></g></g></g><g fill="#000000" fill-opacity="1"><g transform="translate(9.560812, 32.192191)"><g><path d="M 1.4375 -0.3125 C 1.570312 -0.3125 1.703125 -0.347656 1.828125 -0.421875 C 1.953125 -0.492188 2.054688 -0.582031 2.140625 -0.6875 L 2.40625 -0.4375 C 2.28125 -0.300781 2.132812 -0.1875 1.96875 -0.09375 C 1.800781 -0.0078125 1.625 0.03125 1.4375 0.03125 C 1.257812 0.03125 1.09375 0 0.9375 -0.0625 C 0.78125 -0.132812 0.644531 -0.234375 0.53125 -0.359375 C 0.414062 -0.484375 0.320312 -0.625 0.25 -0.78125 C 0.1875 -0.945312 0.15625 -1.117188 0.15625 -1.296875 C 0.15625 -1.484375 0.1875 -1.65625 0.25 -1.8125 C 0.320312 -1.976562 0.414062 -2.117188 0.53125 -2.234375 C 0.644531 -2.359375 0.78125 -2.457031 0.9375 -2.53125 C 1.09375 -2.601562 1.257812 -2.640625 1.4375 -2.640625 C 1.59375 -2.640625 1.742188 -2.601562 1.890625 -2.53125 C 2.035156 -2.46875 2.164062 -2.382812 2.28125 -2.28125 L 2.0625 -2 C 1.976562 -2.082031 1.878906 -2.148438 1.765625 -2.203125 C 1.660156 -2.253906 1.550781 -2.28125 1.4375 -2.28125 C 1.3125 -2.28125 1.191406 -2.253906 1.078125 -2.203125 C 0.972656 -2.148438 0.878906 -2.078125 0.796875 -1.984375 C 0.710938 -1.898438 0.644531 -1.796875 0.59375 -1.671875 C 0.550781 -1.554688 0.53125 -1.429688 0.53125 -1.296875 C 0.53125 -1.160156 0.550781 -1.03125 0.59375 -0.90625 C 0.644531 -0.789062 0.710938 -0.6875 0.796875 -0.59375 C 0.878906 -0.507812 0.972656 -0.441406 1.078125 -0.390625 C 1.191406 -0.335938 1.3125 -0.3125 1.4375 -0.3125 Z M 1.4375 -0.3125 "/></g></g></g><g fill="#000000" fill-opacity="1"><g transform="translate(12.074533, 32.192191)"><g><path d="M 1.40625 -2.640625 C 1.582031 -2.640625 1.75 -2.601562 1.90625 -2.53125 C 2.0625 -2.457031 2.195312 -2.359375 2.3125 -2.234375 C 2.4375 -2.117188 2.53125 -1.976562 2.59375 -1.8125 C 2.664062 -1.65625 2.703125 -1.484375 2.703125 -1.296875 C 2.703125 -1.117188 2.664062 -0.945312 2.59375 -0.78125 C 2.53125 -0.625 2.4375 -0.484375 2.3125 -0.359375 C 2.195312 -0.242188 2.0625 -0.148438 1.90625 -0.078125 C 1.75 -0.00390625 1.582031 0.03125 1.40625 0.03125 C 1.226562 0.03125 1.0625 -0.00390625 0.90625 -0.078125 C 0.75 -0.148438 0.613281 -0.242188 0.5 -0.359375 C 0.382812 -0.484375 0.289062 -0.625 0.21875 -0.78125 C 0.15625 -0.945312 0.125 -1.117188 0.125 -1.296875 C 0.125 -1.484375 0.15625 -1.65625 0.21875 -1.8125 C 0.289062 -1.976562 0.382812 -2.117188 0.5 -2.234375 C 0.613281 -2.359375 0.75 -2.457031 0.90625 -2.53125 C 1.070312 -2.601562 1.238281 -2.640625 1.40625 -2.640625 Z M 1.40625 -0.328125 C 1.53125 -0.328125 1.644531 -0.351562 1.75 -0.40625 C 1.863281 -0.457031 1.960938 -0.523438 2.046875 -0.609375 C 2.128906 -0.703125 2.191406 -0.804688 2.234375 -0.921875 C 2.285156 -1.046875 2.3125 -1.171875 2.3125 -1.296875 C 2.3125 -1.429688 2.285156 -1.554688 2.234375 -1.671875 C 2.191406 -1.796875 2.128906 -1.898438 2.046875 -1.984375 C 1.960938 -2.078125 1.863281 -2.144531 1.75 -2.1875 C 1.644531 -2.238281 1.53125 -2.265625 1.40625 -2.265625 C 1.28125 -2.265625 1.164062 -2.238281 1.0625 -2.1875 C 0.957031 -2.144531 0.863281 -2.078125 0.78125 -1.984375 C 0.695312 -1.898438 0.628906 -1.796875 0.578125 -1.671875 C 0.535156 -1.554688 0.515625 -1.429688 0.515625 -1.296875 C 0.515625 -1.171875 0.535156 -1.046875 0.578125 -0.921875 C 0.628906 -0.804688 0.695312 -0.703125 0.78125 -0.609375 C 0.863281 -0.523438 0.957031 -0.457031 1.0625 -0.40625 C 1.164062 -0.351562 1.28125 -0.328125 1.40625 -0.328125 Z M 1.40625 -0.328125 "/></g></g></g><g fill="#000000" fill-opacity="1"><g transform="translate(14.885064, 32.192191)"><g><path d="M 2.453125 -2.609375 L 2.453125 0 L 2.0625 0 L 0.609375 -2 L 0.609375 0 L 0.203125 0 L 0.203125 -2.609375 L 0.609375 -2.609375 L 2.0625 -0.59375 L 2.0625 -2.609375 Z M 2.453125 -2.609375 "/></g></g></g><g fill="#000000" fill-opacity="1"><g transform="translate(17.541693, 32.192191)"><g><path d="M 1.40625 -2.640625 C 1.582031 -2.640625 1.75 -2.601562 1.90625 -2.53125 C 2.0625 -2.457031 2.195312 -2.359375 2.3125 -2.234375 C 2.4375 -2.117188 2.53125 -1.976562 2.59375 -1.8125 C 2.664062 -1.65625 2.703125 -1.484375 2.703125 -1.296875 C 2.703125 -1.117188 2.664062 -0.945312 2.59375 -0.78125 C 2.53125 -0.625 2.4375 -0.484375 2.3125 -0.359375 C 2.195312 -0.242188 2.0625 -0.148438 1.90625 -0.078125 C 1.75 -0.00390625 1.582031 0.03125 1.40625 0.03125 C 1.226562 0.03125 1.0625 -0.00390625 0.90625 -0.078125 C 0.75 -0.148438 0.613281 -0.242188 0.5 -0.359375 C 0.382812 -0.484375 0.289062 -0.625 0.21875 -0.78125 C 0.15625 -0.945312 0.125 -1.117188 0.125 -1.296875 C 0.125 -1.484375 0.15625 -1.65625 0.21875 -1.8125 C 0.289062 -1.976562 0.382812 -2.117188 0.5 -2.234375 C 0.613281 -2.359375 0.75 -2.457031 0.90625 -2.53125 C 1.070312 -2.601562 1.238281 -2.640625 1.40625 -2.640625 Z M 1.40625 -0.328125 C 1.53125 -0.328125 1.644531 -0.351562 1.75 -0.40625 C 1.863281 -0.457031 1.960938 -0.523438 2.046875 -0.609375 C 2.128906 -0.703125 2.191406 -0.804688 2.234375 -0.921875 C 2.285156 -1.046875 2.3125 -1.171875 2.3125 -1.296875 C 2.3125 -1.429688 2.285156 -1.554688 2.234375 -1.671875 C 2.191406 -1.796875 2.128906 -1.898438 2.046875 -1.984375 C 1.960938 -2.078125 1.863281 -2.144531 1.75 -2.1875 C 1.644531 -2.238281 1.53125 -2.265625 1.40625 -2.265625 C 1.28125 -2.265625 1.164062 -2.238281 1.0625 -2.1875 C 0.957031 -2.144531 0.863281 -2.078125 0.78125 -1.984375 C 0.695312 -1.898438 0.628906 -1.796875 0.578125 -1.671875 C 0.535156 -1.554688 0.515625 -1.429688 0.515625 -1.296875 C 0.515625 -1.171875 0.535156 -1.046875 0.578125 -0.921875 C 0.628906 -0.804688 0.695312 -0.703125 0.78125 -0.609375 C 0.863281 -0.523438 0.957031 -0.457031 1.0625 -0.40625 C 1.164062 -0.351562 1.28125 -0.328125 1.40625 -0.328125 Z M 1.40625 -0.328125 "/></g></g></g><g fill="#000000" fill-opacity="1"><g transform="translate(20.352224, 32.192191)"><g><path d="M 2.421875 -2.609375 L 2.8125 -2.609375 L 2.8125 0 L 2.421875 0 L 2.421875 -2 L 1.671875 -0.953125 L 1.375 -0.953125 L 0.609375 -2 L 0.609375 0 L 0.21875 0 L 0.21875 -2.609375 L 0.609375 -2.609375 L 1.515625 -1.34375 Z M 2.421875 -2.609375 "/></g></g></g><g fill="#000000" fill-opacity="1"><g transform="translate(23.375284, 32.192191)"><g><path d="M 0.90625 -2.28125 L 0.90625 -0.3125 L 1.109375 -0.3125 L 1.109375 0 L 0.328125 0 L 0.328125 -0.3125 L 0.53125 -0.3125 L 0.53125 -2.28125 L 0.328125 -2.28125 L 0.328125 -2.609375 L 1.109375 -2.609375 L 1.109375 -2.28125 Z M 0.90625 -2.28125 "/></g></g></g><g fill="#000000" fill-opacity="1"><g transform="translate(24.81536, 32.192191)"><g><path d="M 1.4375 -0.3125 C 1.570312 -0.3125 1.703125 -0.347656 1.828125 -0.421875 C 1.953125 -0.492188 2.054688 -0.582031 2.140625 -0.6875 L 2.40625 -0.4375 C 2.28125 -0.300781 2.132812 -0.1875 1.96875 -0.09375 C 1.800781 -0.0078125 1.625 0.03125 1.4375 0.03125 C 1.257812 0.03125 1.09375 0 0.9375 -0.0625 C 0.78125 -0.132812 0.644531 -0.234375 0.53125 -0.359375 C 0.414062 -0.484375 0.320312 -0.625 0.25 -0.78125 C 0.1875 -0.945312 0.15625 -1.117188 0.15625 -1.296875 C 0.15625 -1.484375 0.1875 -1.65625 0.25 -1.8125 C 0.320312 -1.976562 0.414062 -2.117188 0.53125 -2.234375 C 0.644531 -2.359375 0.78125 -2.457031 0.9375 -2.53125 C 1.09375 -2.601562 1.257812 -2.640625 1.4375 -2.640625 C 1.59375 -2.640625 1.742188 -2.601562 1.890625 -2.53125 C 2.035156 -2.46875 2.164062 -2.382812 2.28125 -2.28125 L 2.0625 -2 C 1.976562 -2.082031 1.878906 -2.148438 1.765625 -2.203125 C 1.660156 -2.253906 1.550781 -2.28125 1.4375 -2.28125 C 1.3125 -2.28125 1.191406 -2.253906 1.078125 -2.203125 C 0.972656 -2.148438 0.878906 -2.078125 0.796875 -1.984375 C 0.710938 -1.898438 0.644531 -1.796875 0.59375 -1.671875 C 0.550781 -1.554688 0.53125 -1.429688 0.53125 -1.296875 C 0.53125 -1.160156 0.550781 -1.03125 0.59375 -0.90625 C 0.644531 -0.789062 0.710938 -0.6875 0.796875 -0.59375 C 0.878906 -0.507812 0.972656 -0.441406 1.078125 -0.390625 C 1.191406 -0.335938 1.3125 -0.3125 1.4375 -0.3125 Z M 1.4375 -0.3125 "/></g></g></g><g fill="#000000" fill-opacity="1"><g transform="translate(27.329081, 32.192191)"><g><path d="M 1.9375 -0.734375 C 1.9375 -0.617188 1.914062 -0.515625 1.875 -0.421875 C 1.832031 -0.328125 1.769531 -0.242188 1.6875 -0.171875 C 1.507812 -0.0351562 1.289062 0.03125 1.03125 0.03125 C 0.820312 0.03125 0.632812 -0.0078125 0.46875 -0.09375 C 0.300781 -0.175781 0.179688 -0.285156 0.109375 -0.421875 L 0.4375 -0.59375 C 0.476562 -0.507812 0.550781 -0.441406 0.65625 -0.390625 C 0.769531 -0.347656 0.894531 -0.328125 1.03125 -0.328125 C 1.382812 -0.328125 1.5625 -0.460938 1.5625 -0.734375 C 1.5625 -0.785156 1.550781 -0.828125 1.53125 -0.859375 C 1.519531 -0.898438 1.492188 -0.9375 1.453125 -0.96875 C 1.367188 -1.039062 1.210938 -1.101562 0.984375 -1.15625 C 0.847656 -1.195312 0.726562 -1.238281 0.625 -1.28125 C 0.53125 -1.320312 0.453125 -1.367188 0.390625 -1.421875 C 0.234375 -1.546875 0.15625 -1.710938 0.15625 -1.921875 C 0.15625 -2.023438 0.175781 -2.117188 0.21875 -2.203125 C 0.257812 -2.296875 0.316406 -2.375 0.390625 -2.4375 C 0.460938 -2.507812 0.550781 -2.5625 0.65625 -2.59375 C 0.757812 -2.625 0.875 -2.640625 1 -2.640625 C 1.175781 -2.640625 1.335938 -2.601562 1.484375 -2.53125 C 1.640625 -2.46875 1.753906 -2.375 1.828125 -2.25 L 1.53125 -2.0625 C 1.457031 -2.144531 1.375 -2.203125 1.28125 -2.234375 C 1.195312 -2.273438 1.101562 -2.296875 1 -2.296875 C 0.925781 -2.296875 0.859375 -2.28125 0.796875 -2.25 C 0.734375 -2.226562 0.679688 -2.203125 0.640625 -2.171875 C 0.609375 -2.140625 0.582031 -2.101562 0.5625 -2.0625 C 0.550781 -2.019531 0.546875 -1.972656 0.546875 -1.921875 C 0.546875 -1.890625 0.546875 -1.859375 0.546875 -1.828125 C 0.554688 -1.796875 0.578125 -1.757812 0.609375 -1.71875 C 0.648438 -1.6875 0.707031 -1.65625 0.78125 -1.625 C 0.851562 -1.59375 0.953125 -1.5625 1.078125 -1.53125 C 1.222656 -1.488281 1.34375 -1.445312 1.4375 -1.40625 C 1.539062 -1.363281 1.628906 -1.3125 1.703125 -1.25 C 1.859375 -1.125 1.9375 -0.953125 1.9375 -0.734375 Z M 1.9375 -0.734375 "/></g></g></g></svg>