<svg xmlns="http://www.w3.org/2000/svg" xmlns:xlink="http://www.w3.org/1999/xlink" width="50" zoomAndPan="magnify" viewBox="0 0 37.5 37.499999" height="50" preserveAspectRatio="xMidYMid meet" version="1.0"><defs><clipPath id="961771396d"><path d="M 0 0 L 37.007812 0 L 37.007812 37.007812 L 0 37.007812 Z M 0 0 " clip-rule="nonzero"/></clipPath><clipPath id="47dc0aa432"><path d="M 5.550781 8.042969 L 31.457031 8.042969 L 31.457031 28.769531 L 5.550781 28.769531 Z M 5.550781 8.042969 " clip-rule="nonzero"/></clipPath><clipPath id="3a0db255cb"><path d="M 8 11 L 22 11 L 22 28.769531 L 8 28.769531 Z M 8 11 " clip-rule="nonzero"/></clipPath><clipPath id="7d7483737d"><path d="M 8 14 L 13 14 L 13 28.769531 L 8 28.769531 Z M 8 14 " clip-rule="nonzero"/></clipPath><clipPath id="7ae58fdc6c"><path d="M 16 8.042969 L 21 8.042969 L 21 13 L 16 13 Z M 16 8.042969 " clip-rule="nonzero"/></clipPath><clipPath id="b08fc5814b"><path d="M 17 8.042969 L 21 8.042969 L 21 12 L 17 12 Z M 17 8.042969 " clip-rule="nonzero"/></clipPath></defs><g clip-path="url(#961771396d)"><path fill="#ffffff" d="M 0 0 L 37.007812 0 L 37.007812 37.007812 L 0 37.007812 Z M 0 0 " fill-opacity="1" fill-rule="nonzero"/><path fill="#ddbc8a" d="M 0 0 L 37.007812 0 L 37.007812 37.007812 L 0 37.007812 Z M 0 0 " fill-opacity="1" fill-rule="nonzero"/></g><g clip-path="url(#47dc0aa432)"><path fill="#ffffff" d="M 30.484375 13.015625 L 26.957031 10.816406 C 27.011719 10.65625 27.042969 10.480469 27.042969 10.296875 C 27.042969 9.398438 26.300781 8.660156 25.386719 8.660156 C 24.941406 8.660156 24.539062 8.832031 24.238281 9.117188 L 23.4375 8.625 C 23.183594 8.464844 22.886719 8.382812 22.589844 8.382812 C 22.039062 8.382812 21.535156 8.660156 21.238281 9.117188 L 21.070312 9.386719 C 20.941406 9.015625 20.710938 8.699219 20.386719 8.484375 C 20.308594 8.414062 20.226562 8.355469 20.140625 8.296875 C 19.875 8.132812 19.554688 8.042969 19.230469 8.042969 C 18.359375 8.042969 17.445312 8.628906 16.835938 9.566406 C 16.832031 9.574219 16.828125 9.585938 16.816406 9.59375 L 16.714844 9.242188 C 16.601562 8.855469 16.34375 8.535156 15.988281 8.335938 C 15.976562 8.332031 15.96875 8.328125 15.957031 8.320312 L 15.914062 8.300781 C 15.703125 8.203125 15.472656 8.148438 15.242188 8.148438 C 15.207031 8.148438 15.171875 8.148438 15.136719 8.152344 C 13.851562 8.238281 10.589844 8.59375 8.089844 10.074219 C 7.710938 10.296875 7.445312 10.667969 7.363281 11.09375 C 7.355469 11.128906 7.351562 11.160156 7.347656 11.191406 C 7.320312 11.382812 7.332031 11.574219 7.375 11.765625 L 8.007812 14.265625 C 7.820312 14.195312 7.621094 14.152344 7.40625 14.152344 C 6.492188 14.148438 5.753906 14.878906 5.753906 15.785156 C 5.753906 16.636719 6.417969 17.339844 7.257812 17.414062 C 6.707031 17.753906 6.226562 18.332031 5.933594 19.054688 C 5.921875 19.074219 5.914062 19.097656 5.902344 19.121094 C 5.574219 19.972656 5.554688 20.886719 5.851562 21.570312 C 6.050781 22.027344 6.382812 22.355469 6.796875 22.527344 C 6.882812 22.582031 6.972656 22.625 7.070312 22.660156 C 7.222656 22.71875 7.375 22.753906 7.535156 22.765625 C 7.535156 22.769531 7.53125 22.78125 7.53125 22.785156 C 7.425781 23.214844 7.667969 23.648438 8.078125 23.800781 C 8.050781 24 8.101562 24.191406 8.195312 24.351562 L 7.75 24.351562 C 6.917969 24.351562 6.238281 25.023438 6.238281 25.851562 L 6.238281 26.535156 C 6.238281 27.359375 6.917969 28.035156 7.75 28.035156 L 11.105469 28.035156 C 11.28125 28.347656 11.578125 28.570312 11.945312 28.644531 C 12.035156 28.660156 12.140625 28.679688 12.277344 28.699219 C 12.628906 28.742188 13.007812 28.769531 13.414062 28.769531 C 13.867188 28.769531 14.347656 28.738281 14.84375 28.679688 C 15.523438 28.597656 16.246094 28.457031 17 28.261719 C 17.023438 28.257812 17.046875 28.253906 17.066406 28.246094 L 17.207031 28.207031 C 17.222656 28.203125 17.238281 28.199219 17.25 28.195312 C 17.355469 28.164062 17.457031 28.132812 17.5625 28.105469 C 17.847656 28.332031 18.207031 28.464844 18.582031 28.464844 C 19.410156 28.464844 20.09375 27.839844 20.183594 27.042969 C 20.226562 27.023438 20.265625 27.003906 20.300781 26.980469 L 21.246094 27.570312 C 21.5 27.726562 21.789062 27.8125 22.089844 27.8125 C 22.636719 27.8125 23.144531 27.535156 23.4375 27.074219 L 26.207031 22.707031 C 26.273438 22.675781 26.332031 22.636719 26.386719 22.589844 C 26.535156 22.707031 26.714844 22.765625 26.910156 22.765625 C 27.152344 22.765625 27.382812 22.664062 27.539062 22.496094 C 27.699219 22.328125 27.785156 22.109375 27.78125 21.878906 C 27.777344 21.679688 27.707031 21.496094 27.582031 21.347656 C 27.695312 21.195312 27.761719 21.007812 27.753906 20.808594 C 27.75 20.667969 27.714844 20.535156 27.652344 20.421875 L 30.984375 15.191406 C 31.453125 14.453125 31.230469 13.476562 30.484375 13.015625 Z M 30.484375 13.015625 " fill-opacity="1" fill-rule="nonzero"/></g><path fill="#00bdf9" d="M 30.074219 13.789062 C 30.460938 14.03125 30.578125 14.53125 30.335938 14.917969 L 28.164062 18.347656 L 27.300781 19.707031 L 22.804688 26.804688 C 22.558594 27.1875 22.054688 27.308594 21.664062 27.0625 L 14.613281 22.671875 C 14.226562 22.429688 14.109375 21.929688 14.351562 21.542969 L 18.691406 14.695312 L 19.648438 13.179688 L 21.882812 9.652344 C 22.128906 9.273438 22.632812 9.152344 23.023438 9.398438 Z M 30.074219 13.789062 " fill-opacity="1" fill-rule="nonzero"/><path fill="#ffeedc" d="M 18.652344 24.636719 C 18.582031 24.636719 18.511719 24.617188 18.449219 24.578125 C 18.367188 24.523438 18.304688 24.4375 18.28125 24.339844 C 18.257812 24.242188 18.277344 24.140625 18.332031 24.050781 L 25.78125 12.300781 C 25.835938 12.214844 25.921875 12.15625 26.023438 12.128906 C 26.121094 12.105469 26.222656 12.125 26.3125 12.179688 C 26.492188 12.289062 26.542969 12.527344 26.429688 12.699219 L 18.976562 24.457031 C 18.921875 24.542969 18.835938 24.601562 18.734375 24.628906 C 18.710938 24.632812 18.679688 24.636719 18.652344 24.636719 Z M 26.105469 12.175781 C 25.996094 12.175781 25.890625 12.230469 25.828125 12.328125 L 18.375 24.085938 C 18.332031 24.160156 18.316406 24.246094 18.335938 24.328125 C 18.355469 24.414062 18.40625 24.488281 18.480469 24.53125 C 18.636719 24.628906 18.835938 24.582031 18.929688 24.429688 L 26.382812 12.671875 C 26.476562 12.515625 26.429688 12.320312 26.277344 12.226562 C 26.226562 12.191406 26.167969 12.175781 26.105469 12.175781 Z M 26.105469 12.175781 " fill-opacity="1" fill-rule="nonzero"/><path fill="#bb8c98" d="M 23.894531 12.972656 C 23.578125 13.46875 22.917969 13.621094 22.414062 13.308594 C 21.914062 12.996094 21.757812 12.34375 22.074219 11.84375 C 22.390625 11.347656 23.046875 11.195312 23.554688 11.507812 C 24.058594 11.820312 24.207031 12.472656 23.894531 12.972656 Z M 23.894531 12.972656 " fill-opacity="1" fill-rule="nonzero"/><path fill="#edd9de" d="M 23.863281 12.808594 C 23.546875 13.304688 22.886719 13.457031 22.382812 13.144531 C 21.882812 12.832031 21.730469 12.179688 22.042969 11.679688 C 22.359375 11.183594 23.019531 11.03125 23.523438 11.34375 C 24.027344 11.660156 24.175781 12.3125 23.863281 12.808594 Z M 23.863281 12.808594 " fill-opacity="1" fill-rule="nonzero"/><path fill="#edd9de" d="M 22.953125 13.375 C 22.742188 13.375 22.535156 13.3125 22.347656 13.199219 C 21.820312 12.867188 21.660156 12.175781 21.988281 11.648438 C 22.324219 11.125 23.023438 10.964844 23.554688 11.292969 C 23.808594 11.453125 23.988281 11.703125 24.058594 11.996094 C 24.128906 12.289062 24.074219 12.589844 23.914062 12.847656 C 23.753906 13.101562 23.5 13.28125 23.203125 13.347656 C 23.125 13.363281 23.039062 13.375 22.953125 13.375 Z M 22.957031 11.242188 C 22.625 11.242188 22.292969 11.40625 22.105469 11.710938 C 21.808594 12.175781 21.949219 12.792969 22.421875 13.085938 C 22.652344 13.230469 22.921875 13.273438 23.183594 13.214844 C 23.449219 13.15625 23.667969 12.996094 23.8125 12.773438 C 23.957031 12.546875 24.003906 12.277344 23.941406 12.023438 C 23.882812 11.757812 23.722656 11.542969 23.5 11.398438 C 23.328125 11.292969 23.144531 11.242188 22.957031 11.242188 Z M 22.957031 11.242188 " fill-opacity="1" fill-rule="nonzero"/><path fill="#bb8c98" d="M 22.152344 15.714844 C 21.839844 16.210938 21.179688 16.367188 20.675781 16.054688 C 20.175781 15.742188 20.019531 15.085938 20.335938 14.585938 C 20.648438 14.085938 21.308594 13.9375 21.8125 14.25 C 22.3125 14.5625 22.46875 15.222656 22.152344 15.714844 Z M 22.152344 15.714844 " fill-opacity="1" fill-rule="nonzero"/><path fill="#edd9de" d="M 22.125 15.558594 C 21.808594 16.054688 21.148438 16.207031 20.644531 15.894531 C 20.144531 15.582031 19.988281 14.929688 20.304688 14.429688 C 20.621094 13.933594 21.277344 13.78125 21.785156 14.09375 C 22.289062 14.402344 22.4375 15.058594 22.125 15.558594 Z M 22.125 15.558594 " fill-opacity="1" fill-rule="nonzero"/><path fill="#edd9de" d="M 21.214844 16.117188 C 21.007812 16.117188 20.800781 16.0625 20.609375 15.945312 C 20.078125 15.613281 19.921875 14.917969 20.25 14.390625 C 20.585938 13.863281 21.285156 13.707031 21.8125 14.03125 C 22.34375 14.363281 22.503906 15.058594 22.171875 15.582031 C 21.964844 15.929688 21.59375 16.117188 21.214844 16.117188 Z M 21.21875 13.992188 C 20.882812 13.992188 20.554688 14.15625 20.363281 14.457031 C 20.070312 14.925781 20.210938 15.542969 20.683594 15.835938 C 21.15625 16.128906 21.777344 15.988281 22.074219 15.519531 C 22.367188 15.054688 22.230469 14.433594 21.753906 14.140625 C 21.589844 14.042969 21.398438 13.992188 21.21875 13.992188 Z M 21.21875 13.992188 " fill-opacity="1" fill-rule="nonzero"/><path fill="#bb8c98" d="M 20.371094 18.53125 C 20.054688 19.023438 19.394531 19.179688 18.890625 18.867188 C 18.390625 18.554688 18.234375 17.902344 18.550781 17.402344 C 18.867188 16.90625 19.523438 16.75 20.03125 17.0625 C 20.53125 17.375 20.683594 18.035156 20.371094 18.53125 Z M 20.371094 18.53125 " fill-opacity="1" fill-rule="nonzero"/><path fill="#edd9de" d="M 20.339844 18.371094 C 20.023438 18.867188 19.367188 19.019531 18.859375 18.707031 C 18.359375 18.394531 18.207031 17.742188 18.519531 17.242188 C 18.835938 16.742188 19.496094 16.59375 20 16.90625 C 20.503906 17.21875 20.65625 17.871094 20.339844 18.371094 Z M 20.339844 18.371094 " fill-opacity="1" fill-rule="nonzero"/><path fill="#edd9de" d="M 19.429688 18.929688 C 19.226562 18.929688 19.015625 18.875 18.824219 18.757812 C 18.570312 18.597656 18.390625 18.347656 18.320312 18.054688 C 18.25 17.761719 18.304688 17.460938 18.464844 17.203125 C 18.800781 16.675781 19.5 16.519531 20.03125 16.847656 C 20.558594 17.179688 20.71875 17.871094 20.390625 18.402344 C 20.179688 18.742188 19.808594 18.929688 19.429688 18.929688 Z M 19.433594 16.804688 C 19.101562 16.804688 18.769531 16.96875 18.582031 17.273438 C 18.4375 17.5 18.390625 17.765625 18.449219 18.023438 C 18.511719 18.289062 18.671875 18.503906 18.894531 18.648438 C 19.367188 18.941406 19.988281 18.800781 20.285156 18.332031 C 20.578125 17.867188 20.441406 17.246094 19.964844 16.953125 C 19.804688 16.855469 19.621094 16.804688 19.433594 16.804688 Z M 19.433594 16.804688 " fill-opacity="1" fill-rule="nonzero"/><path fill="#bb8c98" d="M 18.457031 21.550781 C 18.140625 22.046875 17.480469 22.199219 16.976562 21.886719 C 16.476562 21.574219 16.320312 20.921875 16.636719 20.421875 C 16.953125 19.925781 17.609375 19.773438 18.117188 20.085938 C 18.617188 20.398438 18.769531 21.050781 18.457031 21.550781 Z M 18.457031 21.550781 " fill-opacity="1" fill-rule="nonzero"/><path fill="#edd9de" d="M 18.425781 21.386719 C 18.109375 21.882812 17.453125 22.035156 16.945312 21.726562 C 16.445312 21.414062 16.292969 20.757812 16.605469 20.257812 C 16.921875 19.761719 17.582031 19.609375 18.085938 19.921875 C 18.589844 20.238281 18.742188 20.894531 18.425781 21.386719 Z M 18.425781 21.386719 " fill-opacity="1" fill-rule="nonzero"/><path fill="#edd9de" d="M 17.515625 21.953125 C 17.3125 21.953125 17.101562 21.898438 16.910156 21.777344 C 16.65625 21.621094 16.476562 21.367188 16.40625 21.074219 C 16.335938 20.785156 16.390625 20.480469 16.550781 20.222656 C 16.886719 19.699219 17.585938 19.539062 18.117188 19.867188 C 18.644531 20.199219 18.804688 20.894531 18.476562 21.421875 C 18.265625 21.765625 17.894531 21.953125 17.515625 21.953125 Z M 17.519531 19.828125 C 17.1875 19.828125 16.855469 19.992188 16.667969 20.292969 C 16.523438 20.519531 16.476562 20.789062 16.535156 21.046875 C 16.597656 21.308594 16.757812 21.527344 16.980469 21.671875 C 17.453125 21.960938 18.074219 21.824219 18.371094 21.351562 C 18.664062 20.886719 18.527344 20.269531 18.050781 19.976562 C 17.890625 19.871094 17.707031 19.828125 17.519531 19.828125 Z M 17.519531 19.828125 " fill-opacity="1" fill-rule="nonzero"/><path fill="#bb8c98" d="M 28.441406 15.800781 C 28.125 16.296875 27.464844 16.449219 26.960938 16.136719 C 26.460938 15.824219 26.304688 15.171875 26.621094 14.671875 C 26.9375 14.171875 27.597656 14.023438 28.101562 14.335938 C 28.605469 14.648438 28.753906 15.304688 28.441406 15.800781 Z M 28.441406 15.800781 " fill-opacity="1" fill-rule="nonzero"/><path fill="#edd9de" d="M 28.410156 15.640625 C 28.09375 16.136719 27.4375 16.292969 26.929688 15.980469 C 26.429688 15.667969 26.277344 15.011719 26.589844 14.511719 C 26.90625 14.019531 27.566406 13.863281 28.070312 14.175781 C 28.574219 14.488281 28.726562 15.148438 28.410156 15.640625 Z M 28.410156 15.640625 " fill-opacity="1" fill-rule="nonzero"/><path fill="#edd9de" d="M 27.5 16.203125 C 27.296875 16.203125 27.085938 16.148438 26.894531 16.027344 C 26.367188 15.695312 26.207031 15.003906 26.535156 14.476562 C 26.871094 13.953125 27.570312 13.792969 28.101562 14.121094 C 28.628906 14.453125 28.789062 15.148438 28.460938 15.675781 C 28.25 16.015625 27.878906 16.203125 27.5 16.203125 Z M 27.507812 14.078125 C 27.171875 14.078125 26.839844 14.242188 26.652344 14.542969 C 26.355469 15.007812 26.496094 15.628906 26.972656 15.917969 C 27.441406 16.210938 28.066406 16.074219 28.359375 15.601562 C 28.65625 15.136719 28.515625 14.519531 28.039062 14.226562 C 27.875 14.125 27.691406 14.078125 27.507812 14.078125 Z M 27.507812 14.078125 " fill-opacity="1" fill-rule="nonzero"/><path fill="#bb8c98" d="M 26.703125 18.550781 C 26.386719 19.046875 25.726562 19.199219 25.222656 18.886719 C 24.71875 18.574219 24.566406 17.921875 24.882812 17.421875 C 25.195312 16.925781 25.855469 16.773438 26.363281 17.082031 C 26.859375 17.394531 27.015625 18.050781 26.703125 18.550781 Z M 26.703125 18.550781 " fill-opacity="1" fill-rule="nonzero"/><path fill="#edd9de" d="M 26.671875 18.386719 C 26.355469 18.882812 25.695312 19.035156 25.191406 18.722656 C 24.691406 18.410156 24.539062 17.757812 24.851562 17.257812 C 25.167969 16.761719 25.828125 16.609375 26.332031 16.921875 C 26.835938 17.230469 26.984375 17.890625 26.671875 18.386719 Z M 26.671875 18.386719 " fill-opacity="1" fill-rule="nonzero"/><path fill="#edd9de" d="M 25.761719 18.945312 C 25.558594 18.945312 25.347656 18.890625 25.15625 18.773438 C 24.902344 18.613281 24.722656 18.363281 24.652344 18.070312 C 24.582031 17.777344 24.636719 17.476562 24.796875 17.21875 C 24.957031 16.964844 25.210938 16.785156 25.507812 16.71875 C 25.800781 16.648438 26.105469 16.703125 26.367188 16.859375 C 26.894531 17.191406 27.054688 17.886719 26.726562 18.410156 C 26.511719 18.761719 26.140625 18.945312 25.761719 18.945312 Z M 25.765625 16.820312 C 25.691406 16.820312 25.617188 16.832031 25.542969 16.847656 C 25.277344 16.90625 25.058594 17.0625 24.914062 17.285156 C 24.765625 17.515625 24.722656 17.78125 24.78125 18.039062 C 24.84375 18.300781 25.003906 18.519531 25.226562 18.664062 C 25.453125 18.808594 25.726562 18.851562 25.988281 18.792969 C 26.25 18.734375 26.472656 18.574219 26.617188 18.351562 C 26.910156 17.886719 26.769531 17.265625 26.296875 16.976562 C 26.136719 16.875 25.953125 16.820312 25.765625 16.820312 Z M 25.765625 16.820312 " fill-opacity="1" fill-rule="nonzero"/><path fill="#bb8c98" d="M 24.917969 21.363281 C 24.601562 21.859375 23.941406 22.011719 23.4375 21.699219 C 22.9375 21.386719 22.785156 20.734375 23.097656 20.234375 C 23.414062 19.734375 24.074219 19.585938 24.578125 19.898438 C 25.078125 20.210938 25.230469 20.863281 24.917969 21.363281 Z M 24.917969 21.363281 " fill-opacity="1" fill-rule="nonzero"/><path fill="#edd9de" d="M 24.886719 21.199219 C 24.574219 21.695312 23.914062 21.847656 23.40625 21.535156 C 22.910156 21.222656 22.753906 20.570312 23.066406 20.070312 C 23.382812 19.574219 24.042969 19.421875 24.546875 19.734375 C 25.050781 20.050781 25.203125 20.703125 24.886719 21.199219 Z M 24.886719 21.199219 " fill-opacity="1" fill-rule="nonzero"/><path fill="#edd9de" d="M 23.976562 21.765625 C 23.769531 21.765625 23.558594 21.703125 23.375 21.589844 C 23.117188 21.433594 22.9375 21.179688 22.867188 20.886719 C 22.796875 20.59375 22.851562 20.292969 23.011719 20.035156 C 23.347656 19.511719 24.046875 19.351562 24.578125 19.679688 C 25.105469 20.011719 25.265625 20.703125 24.9375 21.230469 C 24.777344 21.480469 24.523438 21.660156 24.226562 21.730469 C 24.148438 21.753906 24.0625 21.765625 23.976562 21.765625 Z M 23.984375 19.632812 C 23.90625 19.632812 23.832031 19.644531 23.757812 19.660156 C 23.492188 19.71875 23.273438 19.878906 23.128906 20.101562 C 22.984375 20.328125 22.9375 20.59375 23 20.851562 C 23.058594 21.117188 23.21875 21.332031 23.441406 21.476562 C 23.671875 21.621094 23.941406 21.664062 24.203125 21.605469 C 24.46875 21.546875 24.6875 21.386719 24.832031 21.164062 C 25.128906 20.699219 24.988281 20.082031 24.511719 19.789062 C 24.351562 19.6875 24.167969 19.632812 23.984375 19.632812 Z M 23.984375 19.632812 " fill-opacity="1" fill-rule="nonzero"/><path fill="#bb8c98" d="M 23.003906 24.378906 C 22.6875 24.875 22.027344 25.027344 21.523438 24.714844 C 21.023438 24.40625 20.871094 23.75 21.183594 23.25 C 21.5 22.753906 22.160156 22.601562 22.664062 22.914062 C 23.164062 23.230469 23.316406 23.882812 23.003906 24.378906 Z M 23.003906 24.378906 " fill-opacity="1" fill-rule="nonzero"/><path fill="#edd9de" d="M 22.972656 24.222656 C 22.660156 24.714844 22 24.871094 21.496094 24.558594 C 20.996094 24.246094 20.839844 23.59375 21.15625 23.089844 C 21.46875 22.597656 22.128906 22.441406 22.632812 22.753906 C 23.136719 23.066406 23.289062 23.726562 22.972656 24.222656 Z M 22.972656 24.222656 " fill-opacity="1" fill-rule="nonzero"/><path fill="#edd9de" d="M 22.0625 24.78125 C 21.855469 24.78125 21.644531 24.722656 21.460938 24.605469 C 21.203125 24.449219 21.023438 24.195312 20.953125 23.902344 C 20.882812 23.613281 20.941406 23.308594 21.097656 23.050781 C 21.433594 22.527344 22.132812 22.367188 22.664062 22.695312 C 22.917969 22.855469 23.097656 23.105469 23.167969 23.398438 C 23.238281 23.691406 23.183594 23.992188 23.023438 24.25 C 22.863281 24.503906 22.609375 24.683594 22.3125 24.75 C 22.234375 24.769531 22.148438 24.78125 22.0625 24.78125 Z M 22.070312 22.65625 C 21.734375 22.65625 21.402344 22.820312 21.214844 23.121094 C 21.070312 23.347656 21.023438 23.617188 21.085938 23.875 C 21.144531 24.136719 21.304688 24.355469 21.527344 24.5 C 21.757812 24.640625 22.027344 24.6875 22.289062 24.628906 C 22.554688 24.566406 22.773438 24.410156 22.917969 24.1875 C 23.0625 23.957031 23.109375 23.691406 23.046875 23.433594 C 22.988281 23.171875 22.828125 22.953125 22.605469 22.808594 C 22.4375 22.707031 22.25 22.65625 22.070312 22.65625 Z M 22.070312 22.65625 " fill-opacity="1" fill-rule="nonzero"/><g clip-path="url(#3a0db255cb)"><path fill="#ffa34f" d="M 21.292969 25.527344 C 20.839844 25.929688 19.554688 26.894531 17 27.613281 L 16.863281 27.652344 C 16.066406 27.863281 15.367188 27.992188 14.757812 28.066406 C 13.664062 28.199219 12.867188 28.148438 12.390625 28.085938 C 12.273438 28.070312 12.179688 28.054688 12.097656 28.035156 C 11.9375 28.003906 11.808594 27.890625 11.753906 27.738281 C 11.644531 27.429688 11.433594 26.847656 11.175781 26.097656 C 11.167969 26.082031 11.164062 26.070312 11.160156 26.054688 C 10.503906 24.175781 9.535156 21.324219 9.015625 19.382812 C 8.871094 18.84375 8.757812 18.371094 8.699219 18.015625 C 8.695312 17.988281 8.691406 17.960938 8.6875 17.941406 C 8.328125 15.609375 9.675781 14.878906 9.675781 14.878906 L 9.609375 14.652344 L 9.359375 13.75 L 10.621094 13.082031 L 12.773438 12.636719 L 16.28125 11.863281 L 16.597656 12.992188 C 16.597656 12.992188 17.929688 12.941406 18.832031 14.703125 C 18.902344 14.828125 18.960938 14.96875 19.027344 15.121094 C 19.117188 15.339844 19.210938 15.609375 19.304688 15.929688 C 19.835938 17.625 20.496094 20.566406 20.949219 22.710938 C 20.96875 22.800781 20.988281 22.890625 21.003906 22.976562 C 21.210938 23.949219 21.363281 24.726562 21.4375 25.101562 C 21.472656 25.257812 21.417969 25.414062 21.292969 25.527344 Z M 21.292969 25.527344 " fill-opacity="1" fill-rule="nonzero"/></g><path fill="#ffeedc" d="M 20.949219 22.707031 C 20.253906 23.4375 19.691406 23.878906 17.832031 24.628906 C 15.726562 25.46875 13.4375 25.875 11.160156 26.058594 C 10.503906 24.179688 9.535156 21.328125 9.015625 19.386719 C 8.871094 18.847656 8.757812 18.375 8.699219 18.019531 C 12.289062 17.785156 15.8125 16.632812 18.832031 14.707031 C 18.902344 14.835938 18.960938 14.972656 19.027344 15.128906 C 19.117188 15.34375 19.210938 15.613281 19.304688 15.933594 C 19.835938 17.617188 20.496094 20.5625 20.949219 22.707031 Z M 20.949219 22.707031 " fill-opacity="1" fill-rule="nonzero"/><path fill="#ff6963" d="M 14.253906 18.789062 L 15.074219 18.527344 L 16.589844 23.152344 L 15.769531 23.414062 Z M 14.253906 18.789062 " fill-opacity="1" fill-rule="nonzero"/><path fill="#ff6963" d="M 13.242188 21.152344 L 17.289062 19.855469 L 17.59375 20.789062 L 13.546875 22.085938 Z M 13.242188 21.152344 " fill-opacity="1" fill-rule="nonzero"/><path fill="#ffffff" d="M 16.988281 14.878906 C 17.054688 15.15625 17.246094 15.398438 17.496094 15.542969 C 17.601562 15.601562 17.714844 15.648438 17.835938 15.640625 C 18.066406 15.628906 18.25 15.417969 18.289062 15.195312 C 18.332031 14.972656 18.257812 14.742188 18.140625 14.542969 C 18.082031 14.433594 18.007812 14.328125 17.910156 14.25 C 17.332031 13.730469 16.8125 14.207031 16.988281 14.878906 Z M 16.988281 14.878906 " fill-opacity="1" fill-rule="nonzero"/><path fill="#ffffff" d="M 18.234375 17.332031 C 18.316406 17.464844 18.414062 17.582031 18.550781 17.660156 C 18.6875 17.734375 18.855469 17.753906 18.996094 17.683594 C 19.195312 17.578125 19.261719 17.328125 19.261719 17.101562 C 19.253906 16.703125 18.996094 15.816406 18.449219 15.871094 C 17.785156 15.933594 18.027344 16.976562 18.234375 17.332031 Z M 18.234375 17.332031 " fill-opacity="1" fill-rule="nonzero"/><g clip-path="url(#7d7483737d)"><path fill="#412424" d="M 12.390625 28.078125 C 12.273438 28.066406 12.179688 28.050781 12.097656 28.03125 C 11.9375 28 11.808594 27.886719 11.753906 27.734375 C 11.644531 27.425781 11.433594 26.839844 11.175781 26.09375 C 11.167969 26.078125 11.164062 26.0625 11.160156 26.046875 C 10.503906 24.171875 9.535156 21.320312 9.015625 19.375 C 8.871094 18.835938 8.757812 18.367188 8.699219 18.011719 C 8.695312 17.984375 8.691406 17.957031 8.6875 17.9375 C 8.328125 15.601562 9.675781 14.875 9.675781 14.875 L 9.609375 14.648438 C 9.796875 14.707031 9.925781 14.835938 9.925781 15.066406 C 9.925781 15.300781 9.789062 15.558594 9.746094 15.789062 C 9.691406 16.078125 9.664062 16.371094 9.660156 16.664062 C 9.644531 17.335938 9.730469 18.003906 9.832031 18.667969 C 10.074219 20.285156 10.398438 21.886719 10.796875 23.472656 C 11.183594 25.058594 11.65625 26.628906 12.390625 28.078125 Z M 12.390625 28.078125 " fill-opacity="0.2" fill-rule="nonzero"/></g><path fill="#ffeedc" d="M 16.621094 11.792969 C 16.621094 11.792969 16.492188 12.027344 16.03125 12.382812 C 16.023438 12.394531 16.011719 12.402344 16.003906 12.40625 C 15.792969 12.566406 15.511719 12.753906 15.152344 12.957031 C 15.144531 12.960938 15.132812 12.96875 15.117188 12.976562 C 14.832031 13.136719 14.492188 13.304688 14.09375 13.476562 C 14.082031 13.484375 14.066406 13.488281 14.058594 13.492188 C 13.785156 13.613281 13.484375 13.730469 13.152344 13.855469 C 13.078125 13.878906 13.007812 13.902344 12.9375 13.929688 C 12.929688 13.933594 12.914062 13.9375 12.902344 13.9375 C 12.445312 14.097656 12.019531 14.210938 11.640625 14.296875 C 11.628906 14.300781 11.613281 14.300781 11.597656 14.304688 C 11.191406 14.394531 10.820312 14.4375 10.5 14.464844 C 10.484375 14.464844 10.46875 14.46875 10.460938 14.46875 C 10.046875 14.5 9.710938 14.476562 9.445312 14.449219 C 9.429688 14.449219 9.414062 14.445312 9.40625 14.445312 C 8.980469 14.390625 8.769531 14.300781 8.769531 14.300781 L 8.117188 11.710938 C 8.089844 11.617188 8.085938 11.515625 8.101562 11.421875 C 8.101562 11.40625 8.105469 11.398438 8.105469 11.382812 C 8.144531 11.167969 8.28125 10.980469 8.476562 10.863281 C 10.816406 9.480469 13.882812 9.132812 15.183594 9.050781 C 15.316406 9.039062 15.453125 9.070312 15.566406 9.125 C 15.578125 9.128906 15.59375 9.132812 15.601562 9.144531 C 15.777344 9.238281 15.914062 9.402344 15.96875 9.597656 Z M 16.621094 11.792969 " fill-opacity="1" fill-rule="nonzero"/><path fill="#9ed9e5" d="M 15.605469 9.132812 C 15.386719 9.320312 15.152344 9.496094 14.914062 9.648438 C 14.902344 9.652344 14.894531 9.664062 14.882812 9.667969 C 14.574219 9.863281 14.253906 10.035156 13.929688 10.183594 C 13.917969 10.1875 13.902344 10.195312 13.894531 10.199219 C 13.578125 10.34375 13.257812 10.472656 12.945312 10.585938 C 12.933594 10.589844 12.917969 10.59375 12.910156 10.59375 C 12.644531 10.6875 12.378906 10.777344 12.125 10.859375 C 12.054688 10.882812 11.980469 10.902344 11.90625 10.921875 C 11.894531 10.925781 11.878906 10.933594 11.863281 10.933594 C 11.535156 11.027344 11.183594 11.109375 10.816406 11.183594 C 10.804688 11.191406 10.789062 11.191406 10.773438 11.195312 C 10.539062 11.238281 10.296875 11.285156 10.035156 11.324219 C 9.90625 11.34375 9.785156 11.363281 9.671875 11.378906 C 9.65625 11.378906 9.644531 11.382812 9.628906 11.382812 C 9.265625 11.433594 8.964844 11.460938 8.699219 11.460938 C 8.675781 11.460938 8.652344 11.460938 8.625 11.460938 C 8.609375 11.460938 8.597656 11.460938 8.585938 11.460938 C 8.417969 11.457031 8.257812 11.4375 8.101562 11.402344 C 8.101562 11.386719 8.105469 11.378906 8.105469 11.363281 C 8.609375 11.480469 9.152344 11.421875 10.03125 11.289062 C 10.808594 11.167969 11.484375 11.015625 12.105469 10.824219 C 13.003906 10.539062 13.988281 10.179688 14.863281 9.625 L 14.867188 9.625 C 15.113281 9.472656 15.347656 9.296875 15.566406 9.109375 C 15.582031 9.117188 15.597656 9.128906 15.605469 9.132812 Z M 15.605469 9.132812 " fill-opacity="1" fill-rule="nonzero"/><path fill="#9ed9e5" d="M 9.445312 14.445312 C 9.429688 14.445312 9.414062 14.4375 9.40625 14.4375 L 8.582031 11.476562 L 8.582031 11.472656 L 8.617188 11.460938 L 8.621094 11.476562 Z M 9.445312 14.445312 " fill-opacity="1" fill-rule="nonzero"/><path fill="#9ed9e5" d="M 10.5 14.457031 C 10.484375 14.457031 10.46875 14.464844 10.460938 14.464844 C 10.335938 13.992188 10.207031 13.523438 10.074219 13.046875 C 9.925781 12.496094 9.777344 11.941406 9.628906 11.402344 C 9.628906 11.398438 9.628906 11.394531 9.625 11.394531 L 9.660156 11.382812 C 9.660156 11.386719 9.664062 11.394531 9.664062 11.398438 C 9.808594 11.9375 9.960938 12.488281 10.109375 13.035156 C 10.246094 13.511719 10.375 13.988281 10.5 14.457031 Z M 10.5 14.457031 " fill-opacity="1" fill-rule="nonzero"/><path fill="#9ed9e5" d="M 11.640625 14.296875 C 11.628906 14.300781 11.613281 14.300781 11.597656 14.304688 C 11.320312 13.273438 11.039062 12.234375 10.773438 11.214844 C 10.769531 11.203125 10.769531 11.199219 10.769531 11.195312 L 10.808594 11.183594 C 10.808594 11.195312 10.816406 11.199219 10.816406 11.210938 C 11.078125 12.226562 11.359375 13.265625 11.640625 14.296875 Z M 11.640625 14.296875 " fill-opacity="1" fill-rule="nonzero"/><path fill="#9ed9e5" d="M 12.945312 13.929688 C 12.933594 13.933594 12.917969 13.9375 12.910156 13.9375 C 12.574219 12.9375 12.222656 11.9375 11.871094 10.945312 C 11.871094 10.9375 11.863281 10.933594 11.859375 10.921875 L 11.894531 10.90625 C 11.898438 10.917969 11.898438 10.921875 11.90625 10.933594 C 12.257812 11.921875 12.605469 12.929688 12.945312 13.929688 Z M 12.945312 13.929688 " fill-opacity="1" fill-rule="nonzero"/><path fill="#9ed9e5" d="M 14.09375 13.476562 C 14.082031 13.484375 14.066406 13.488281 14.058594 13.492188 L 12.902344 10.605469 L 12.890625 10.570312 L 12.921875 10.554688 L 12.9375 10.589844 Z M 14.09375 13.476562 " fill-opacity="1" fill-rule="nonzero"/><path fill="#9ed9e5" d="M 15.152344 12.957031 C 15.144531 12.960938 15.132812 12.96875 15.117188 12.976562 C 14.6875 12.066406 14.273438 11.136719 13.886719 10.203125 C 13.886719 10.199219 13.886719 10.199219 13.882812 10.195312 L 13.917969 10.179688 C 13.917969 10.179688 13.917969 10.183594 13.921875 10.183594 C 14.308594 11.113281 14.722656 12.046875 15.152344 12.957031 Z M 15.152344 12.957031 " fill-opacity="1" fill-rule="nonzero"/><path fill="#9ed9e5" d="M 16.03125 12.382812 C 16.023438 12.394531 16.011719 12.402344 16.003906 12.40625 C 15.667969 11.480469 15.292969 10.566406 14.882812 9.667969 C 14.878906 9.660156 14.871094 9.644531 14.867188 9.632812 L 14.902344 9.621094 C 14.90625 9.628906 14.914062 9.640625 14.917969 9.648438 C 15.324219 10.539062 15.699219 11.457031 16.03125 12.382812 Z M 16.03125 12.382812 " fill-opacity="1" fill-rule="nonzero"/><path fill="#edd9de" d="M 7.355469 22.085938 C 7.285156 22.054688 7.21875 22.023438 7.15625 21.976562 C 6.617188 21.589844 6.480469 20.605469 6.863281 19.632812 C 6.863281 19.628906 6.867188 19.625 6.867188 19.621094 C 7.285156 18.558594 8.171875 17.910156 8.867188 18.144531 C 8.875 18.148438 8.886719 18.152344 8.902344 18.152344 C 9.550781 18.402344 9.789062 19.375 9.476562 20.382812 C 9.449219 20.457031 9.429688 20.53125 9.402344 20.605469 C 8.964844 21.695312 8.054688 22.359375 7.355469 22.085938 Z M 7.355469 22.085938 " fill-opacity="1" fill-rule="nonzero"/><path fill="#ffeedc" d="M 7.152344 21.980469 C 7.140625 21.976562 7.132812 21.972656 7.121094 21.972656 C 6.421875 21.703125 6.199219 20.605469 6.628906 19.519531 C 6.628906 19.511719 6.632812 19.503906 6.636719 19.496094 C 7.066406 18.425781 7.964844 17.773438 8.660156 18.039062 C 8.730469 18.070312 8.800781 18.105469 8.859375 18.148438 C 9.375 18.519531 9.527344 19.441406 9.199219 20.371094 C 9.1875 20.414062 9.171875 20.453125 9.15625 20.492188 C 8.742188 21.5625 7.851562 22.21875 7.152344 21.980469 Z M 7.152344 21.980469 " fill-opacity="1" fill-rule="nonzero"/><path fill="#00bdf9" d="M 9.207031 20.371094 C 8.964844 20.34375 8.730469 20.285156 8.496094 20.21875 C 7.9375 20.066406 7.375 19.882812 6.867188 19.621094 C 6.789062 19.578125 6.710938 19.535156 6.636719 19.492188 C 7.066406 18.421875 7.964844 17.765625 8.660156 18.035156 C 8.730469 18.0625 8.800781 18.097656 8.859375 18.144531 C 9.375 18.519531 9.527344 19.4375 9.207031 20.371094 Z M 9.207031 20.371094 " fill-opacity="1" fill-rule="nonzero"/><path fill="#edd9de" d="M 17.6875 12.808594 C 17.621094 12.769531 17.5625 12.71875 17.511719 12.664062 C 17.054688 12.183594 17.105469 11.195312 17.660156 10.308594 C 17.667969 10.304688 17.667969 10.296875 17.671875 10.292969 C 18.285156 9.328125 19.273438 8.855469 19.910156 9.214844 C 19.921875 9.21875 19.929688 9.222656 19.941406 9.234375 C 20.535156 9.597656 20.585938 10.601562 20.085938 11.53125 C 20.050781 11.601562 20.011719 11.671875 19.964844 11.734375 C 19.339844 12.726562 18.320312 13.207031 17.6875 12.808594 Z M 17.6875 12.808594 " fill-opacity="1" fill-rule="nonzero"/><g clip-path="url(#7ae58fdc6c)"><path fill="#ffeedc" d="M 17.507812 12.664062 C 17.496094 12.660156 17.488281 12.65625 17.476562 12.652344 C 16.839844 12.253906 16.828125 11.136719 17.453125 10.148438 C 17.457031 10.144531 17.460938 10.132812 17.464844 10.128906 C 18.085938 9.152344 19.101562 8.683594 19.730469 9.074219 C 19.796875 9.113281 19.855469 9.164062 19.90625 9.21875 C 20.339844 9.679688 20.316406 10.609375 19.820312 11.46875 C 19.800781 11.507812 19.773438 11.542969 19.753906 11.574219 C 19.144531 12.546875 18.144531 13.027344 17.507812 12.664062 Z M 17.507812 12.664062 " fill-opacity="1" fill-rule="nonzero"/></g><g clip-path="url(#b08fc5814b)"><path fill="#ff998d" d="M 19.824219 11.46875 C 19.59375 11.398438 19.371094 11.292969 19.15625 11.183594 C 18.636719 10.933594 18.121094 10.648438 17.667969 10.292969 C 17.597656 10.238281 17.53125 10.183594 17.464844 10.125 C 18.085938 9.148438 19.101562 8.679688 19.730469 9.070312 C 19.796875 9.109375 19.855469 9.160156 19.90625 9.214844 C 20.34375 9.679688 20.320312 10.609375 19.824219 11.46875 Z M 19.824219 11.46875 " fill-opacity="1" fill-rule="nonzero"/></g><path fill="#edd9de" d="M 14.367188 27.410156 L 7.320312 27.410156 C 7.152344 27.410156 7.011719 27.273438 7.011719 27.105469 L 7.011719 25.558594 C 7.011719 25.390625 7.152344 25.25 7.320312 25.25 L 14.367188 25.25 C 14.539062 25.25 14.679688 25.390625 14.679688 25.558594 L 14.679688 27.105469 C 14.679688 27.273438 14.539062 27.410156 14.367188 27.410156 Z M 14.367188 27.410156 " fill-opacity="1" fill-rule="nonzero"/><path fill="#bb8c98" d="M 11.933594 27.191406 L 9.390625 27.191406 L 9.390625 25.464844 L 11.933594 25.464844 C 11.933594 25.464844 11.933594 27.191406 11.933594 27.191406 Z M 9.421875 27.167969 L 11.910156 27.167969 L 11.910156 25.492188 L 9.421875 25.492188 Z M 9.421875 27.167969 " fill-opacity="1" fill-rule="nonzero"/><path fill="#bb8c98" d="M 7.929688 25.738281 C 7.929688 25.804688 7.875 25.859375 7.804688 25.859375 C 7.738281 25.859375 7.679688 25.804688 7.679688 25.738281 C 7.679688 25.667969 7.738281 25.613281 7.804688 25.613281 C 7.875 25.613281 7.929688 25.667969 7.929688 25.738281 Z M 7.929688 25.738281 " fill-opacity="1" fill-rule="nonzero"/><path fill="#bb8c98" d="M 8.480469 26.273438 C 8.480469 26.339844 8.425781 26.394531 8.355469 26.394531 C 8.285156 26.394531 8.230469 26.339844 8.230469 26.273438 C 8.230469 26.203125 8.285156 26.148438 8.355469 26.148438 C 8.425781 26.148438 8.480469 26.203125 8.480469 26.273438 Z M 8.480469 26.273438 " fill-opacity="1" fill-rule="nonzero"/><path fill="#bb8c98" d="M 7.953125 26.792969 C 7.953125 26.859375 7.898438 26.914062 7.828125 26.914062 C 7.757812 26.914062 7.703125 26.859375 7.703125 26.792969 C 7.703125 26.722656 7.757812 26.667969 7.828125 26.667969 C 7.898438 26.671875 7.953125 26.726562 7.953125 26.792969 Z M 7.953125 26.792969 " fill-opacity="1" fill-rule="nonzero"/><path fill="#bb8c98" d="M 13.5625 25.738281 C 13.5625 25.804688 13.617188 25.859375 13.6875 25.859375 C 13.757812 25.859375 13.8125 25.804688 13.8125 25.738281 C 13.8125 25.667969 13.757812 25.613281 13.6875 25.613281 C 13.617188 25.613281 13.5625 25.667969 13.5625 25.738281 Z M 13.5625 25.738281 " fill-opacity="1" fill-rule="nonzero"/><path fill="#bb8c98" d="M 13.015625 26.273438 C 13.015625 26.339844 13.070312 26.394531 13.140625 26.394531 C 13.207031 26.394531 13.261719 26.339844 13.261719 26.273438 C 13.261719 26.203125 13.207031 26.148438 13.140625 26.148438 C 13.070312 26.148438 13.015625 26.203125 13.015625 26.273438 Z M 13.015625 26.273438 " fill-opacity="1" fill-rule="nonzero"/><path fill="#bb8c98" d="M 13.542969 26.792969 C 13.542969 26.859375 13.597656 26.914062 13.667969 26.914062 C 13.738281 26.914062 13.792969 26.859375 13.792969 26.792969 C 13.792969 26.722656 13.738281 26.667969 13.667969 26.667969 C 13.597656 26.667969 13.542969 26.726562 13.542969 26.792969 Z M 13.542969 26.792969 " fill-opacity="1" fill-rule="nonzero"/><path fill="#ffeedc" d="M 19.433594 27 C 19.433594 27.230469 19.351562 27.429688 19.1875 27.589844 C 19.023438 27.753906 18.824219 27.835938 18.589844 27.835938 C 18.359375 27.835938 18.160156 27.753906 17.992188 27.589844 C 17.828125 27.429688 17.746094 27.230469 17.746094 27 C 17.746094 26.769531 17.828125 26.570312 17.992188 26.40625 C 18.160156 26.246094 18.359375 26.164062 18.589844 26.164062 C 18.824219 26.164062 19.023438 26.246094 19.1875 26.40625 C 19.351562 26.570312 19.433594 26.769531 19.433594 27 Z M 19.433594 27 " fill-opacity="1" fill-rule="nonzero"/><path fill="#412424" d="M 7.40625 16.792969 C 6.917969 16.792969 6.523438 16.398438 6.523438 15.914062 C 6.523438 15.429688 6.917969 15.039062 7.40625 15.039062 C 7.898438 15.039062 8.292969 15.429688 8.292969 15.914062 C 8.292969 16.398438 7.890625 16.792969 7.40625 16.792969 Z M 7.40625 15.113281 C 6.960938 15.113281 6.597656 15.472656 6.597656 15.914062 C 6.597656 16.355469 6.960938 16.71875 7.40625 16.71875 C 7.851562 16.71875 8.214844 16.355469 8.214844 15.914062 C 8.210938 15.472656 7.851562 15.113281 7.40625 15.113281 Z M 7.40625 15.113281 " fill-opacity="1" fill-rule="nonzero"/><path fill="#412424" d="M 25.382812 11.308594 C 24.890625 11.308594 24.496094 10.917969 24.496094 10.433594 C 24.496094 9.945312 24.890625 9.554688 25.382812 9.554688 C 25.871094 9.554688 26.265625 9.945312 26.265625 10.433594 C 26.265625 10.917969 25.871094 11.308594 25.382812 11.308594 Z M 25.382812 9.628906 C 24.9375 9.628906 24.574219 9.992188 24.574219 10.433594 C 24.574219 10.871094 24.9375 11.230469 25.382812 11.230469 C 25.828125 11.230469 26.191406 10.867188 26.191406 10.425781 C 26.191406 9.984375 25.832031 9.628906 25.382812 9.628906 Z M 25.382812 9.628906 " fill-opacity="1" fill-rule="nonzero"/><path fill="#412424" d="M 9.867188 23.585938 C 9.855469 23.585938 9.851562 23.585938 9.839844 23.582031 L 8.355469 23.226562 C 8.300781 23.210938 8.265625 23.15625 8.28125 23.101562 C 8.296875 23.046875 8.351562 23.011719 8.40625 23.027344 L 9.890625 23.382812 C 9.945312 23.398438 9.980469 23.453125 9.964844 23.507812 C 9.957031 23.550781 9.910156 23.585938 9.867188 23.585938 Z M 9.867188 23.585938 " fill-opacity="1" fill-rule="nonzero"/><path fill="#412424" d="M 8.945312 24.140625 C 8.9375 24.140625 8.929688 24.140625 8.921875 24.136719 C 8.867188 24.121094 8.832031 24.066406 8.847656 24.011719 L 9.207031 22.542969 C 9.222656 22.488281 9.277344 22.453125 9.332031 22.46875 C 9.386719 22.484375 9.421875 22.535156 9.40625 22.589844 L 9.046875 24.0625 C 9.035156 24.113281 8.992188 24.140625 8.945312 24.140625 Z M 8.945312 24.140625 " fill-opacity="1" fill-rule="nonzero"/><path fill="#412424" d="M 25.847656 22.160156 C 25.820312 22.160156 25.796875 22.152344 25.777344 22.128906 C 25.738281 22.089844 25.730469 22.027344 25.773438 21.988281 L 26.828125 20.894531 C 26.867188 20.851562 26.929688 20.847656 26.972656 20.886719 C 27.011719 20.925781 27.015625 20.992188 26.976562 21.03125 L 25.925781 22.125 C 25.902344 22.144531 25.875 22.160156 25.847656 22.160156 Z M 25.847656 22.160156 " fill-opacity="1" fill-rule="nonzero"/><path fill="#412424" d="M 26.925781 22.128906 C 26.902344 22.128906 26.875 22.121094 26.855469 22.101562 L 25.75 21.054688 C 25.710938 21.015625 25.707031 20.953125 25.746094 20.914062 C 25.785156 20.871094 25.851562 20.867188 25.890625 20.90625 L 26.996094 21.953125 C 27.035156 21.992188 27.042969 22.054688 27 22.097656 C 26.980469 22.121094 26.957031 22.128906 26.925781 22.128906 Z M 26.925781 22.128906 " fill-opacity="1" fill-rule="nonzero"/></svg>