<svg xmlns="http://www.w3.org/2000/svg" xmlns:xlink="http://www.w3.org/1999/xlink" width="1488" zoomAndPan="magnify" viewBox="0 0 1116 287.999989" height="384" preserveAspectRatio="xMidYMid meet" version="1.0"><defs><g/><clipPath id="f4130b69fe"><path d="M 1059 103 L 1109.347656 103 L 1109.347656 288 L 1059 288 Z M 1059 103 " clip-rule="nonzero"/></clipPath><clipPath id="dcd59c8b1e"><path d="M 1030 47.042969 L 1056 47.042969 L 1056 285 L 1030 285 Z M 1030 47.042969 " clip-rule="nonzero"/></clipPath><clipPath id="fdd4a57058"><path d="M 795 141.441406 L 951.945312 141.441406 L 951.945312 182 L 795 182 Z M 795 141.441406 " clip-rule="nonzero"/></clipPath><clipPath id="981a4600bf"><path d="M 783.195312 179 L 929 179 L 929 211 L 783.195312 211 Z M 783.195312 179 " clip-rule="nonzero"/></clipPath><clipPath id="1559b997a9"><path d="M 854 41.285156 L 863 41.285156 L 863 53 L 854 53 Z M 854 41.285156 " clip-rule="nonzero"/></clipPath><clipPath id="83ac648dc3"><path d="M 855 80 L 911 80 L 911 140.285156 L 855 140.285156 Z M 855 80 " clip-rule="nonzero"/></clipPath><clipPath id="c028df76b9"><path d="M 852.925781 76 L 912.925781 76 L 912.925781 81 L 852.925781 81 Z M 852.925781 76 " clip-rule="nonzero"/></clipPath><clipPath id="d51767b83c"><path d="M 75 71.25 L 122 71.25 L 122 277 L 75 277 Z M 75 71.25 " clip-rule="nonzero"/></clipPath></defs><rect x="-111.6" width="1339.2" fill="#ffffff" y="-28.799999" height="345.599986" fill-opacity="1"/><rect x="-111.6" width="1339.2" fill="#173a57" y="-28.799999" height="345.599986" fill-opacity="1"/><g clip-path="url(#f4130b69fe)"><path fill="#f2802d" d="M 1069.75 289.902344 L 1099.570312 289.902344 C 1105.042969 289.902344 1109.480469 285.464844 1109.480469 279.992188 L 1109.480469 113.84375 C 1109.480469 108.371094 1105.042969 103.9375 1099.570312 103.9375 L 1069.75 103.9375 C 1064.277344 103.9375 1059.839844 108.371094 1059.839844 113.84375 L 1059.839844 279.988281 C 1059.839844 285.460938 1064.277344 289.902344 1069.75 289.902344 " fill-opacity="1" fill-rule="nonzero"/></g><path fill="#f5c538" d="M 1071.640625 248.945312 L 1097.683594 248.945312 C 1100.210938 248.945312 1102.257812 246.898438 1102.257812 244.371094 L 1102.257812 121.679688 C 1102.257812 119.152344 1100.210938 117.105469 1097.683594 117.105469 L 1071.640625 117.105469 C 1069.113281 117.105469 1067.066406 119.152344 1067.066406 121.679688 L 1067.066406 244.371094 C 1067.066406 246.898438 1069.113281 248.945312 1071.640625 248.945312 " fill-opacity="1" fill-rule="nonzero"/><g clip-path="url(#dcd59c8b1e)"><path fill="#f5c538" d="M 1030.457031 59.882812 L 1030.457031 271.792969 C 1030.457031 278.773438 1032.679688 284.441406 1035.414062 284.441406 L 1050.328125 284.441406 C 1053.0625 284.441406 1055.285156 278.773438 1055.285156 271.792969 L 1055.285156 59.882812 C 1055.285156 52.902344 1053.0625 47.253906 1050.328125 47.253906 L 1035.414062 47.253906 C 1032.679688 47.253906 1030.457031 52.902344 1030.457031 59.882812 " fill-opacity="1" fill-rule="nonzero"/></g><path fill="#84bca9" d="M 1030.457031 63.480469 L 1030.457031 81.0625 L 1055.285156 81.0625 L 1055.285156 63.480469 L 1030.457031 63.480469 " fill-opacity="1" fill-rule="nonzero"/><path fill="#84bca9" d="M 1030.457031 253.523438 L 1030.457031 271.101562 L 1055.285156 271.101562 L 1055.285156 253.523438 L 1030.457031 253.523438 " fill-opacity="1" fill-rule="nonzero"/><path fill="#f2802d" d="M 1003.449219 60.691406 L 953.457031 266.621094 C 951.8125 273.402344 952.632812 279.433594 955.292969 280.082031 L 969.785156 283.597656 C 972.441406 284.242188 975.9375 279.261719 977.582031 272.476562 L 1027.578125 66.546875 C 1029.222656 59.765625 1028.394531 53.753906 1025.738281 53.109375 L 1011.246094 49.589844 C 1008.589844 48.945312 1005.097656 53.90625 1003.449219 60.691406 " fill-opacity="1" fill-rule="nonzero"/><path fill="#f5c538" d="M 1002.601562 64.1875 L 1000.816406 71.542969 L 1024.941406 77.402344 L 1026.726562 70.046875 L 1002.601562 64.1875 " fill-opacity="1" fill-rule="nonzero"/><path fill="#f5c538" d="M 998.800781 79.847656 L 997.011719 87.203125 L 1021.140625 93.0625 L 1022.925781 85.707031 L 998.800781 79.847656 " fill-opacity="1" fill-rule="nonzero"/><path fill="#fafbec" d="M 799.628906 262.003906 C 799.511719 256.023438 796.386719 250.90625 791.929688 248.449219 C 793.1875 247.378906 794.808594 246.714844 796.582031 246.679688 L 934.605469 244.851562 C 938.683594 244.773438 942.089844 248.035156 942.167969 252.105469 L 942.5 268.890625 C 942.578125 272.960938 939.304688 276.355469 935.222656 276.4375 L 797.203125 278.265625 C 795.152344 278.304688 793.273438 277.5 791.898438 276.171875 C 796.570312 273.664062 799.75 268.238281 799.628906 262.003906 " fill-opacity="1" fill-rule="nonzero"/><path fill="#ca961b" d="M 791.1875 243.296875 L 791.253906 243.292969 Z M 791.1875 243.296875 " fill-opacity="1" fill-rule="nonzero"/><path fill="#ca961b" d="M 940.523438 244.246094 L 940.527344 244.25 Z M 940.523438 244.246094 " fill-opacity="1" fill-rule="nonzero"/><path fill="#f79c3e" d="M 788.632812 279.578125 C 789.09375 280.339844 789.832031 280.945312 790.730469 281.222656 C 792.753906 281.851562 930.609375 279.804688 937.246094 278.832031 C 940.027344 277.976562 942.402344 275.761719 943.464844 273.050781 C 944.3125 270.902344 944.21875 250.179688 942.863281 247.332031 C 941.078125 243.582031 936.835938 241.316406 932.75 241.398438 C 926.476562 241.519531 805.652344 243.015625 793.367188 243.234375 C 791.621094 243.269531 789.6875 243.378906 788.464844 244.617188 C 787.367188 245.734375 787.75 247.914062 789.78125 249.128906 C 792.328125 250.652344 933.113281 247.777344 935.214844 249.589844 C 937.128906 251.234375 936.972656 265.25 936.621094 268.691406 C 936.332031 271.503906 934.082031 272.207031 931.546875 272.257812 C 906.75 272.378906 793.199219 274.65625 790.515625 275.167969 C 789.664062 275.328125 788.5 276.078125 788.335938 276.496094 C 787.921875 277.558594 788.085938 278.675781 788.632812 279.578125 " fill-opacity="1" fill-rule="nonzero"/><path fill="#d4d4c2" d="M 804.695312 270.851562 L 929.699219 268.628906 C 930.007812 268.621094 930.253906 268.359375 930.246094 268.050781 C 930.234375 267.742188 929.976562 267.496094 929.664062 267.503906 L 804.664062 269.730469 C 804.351562 269.738281 804.109375 269.996094 804.117188 270.308594 C 804.125 270.617188 804.382812 270.863281 804.695312 270.851562 " fill-opacity="1" fill-rule="nonzero"/><path fill="#d4d4c2" d="M 804.296875 263.894531 L 929.296875 261.667969 C 929.609375 261.660156 929.855469 261.402344 929.847656 261.09375 C 929.839844 260.78125 929.578125 260.535156 929.269531 260.546875 L 804.265625 262.769531 C 803.953125 262.777344 803.710938 263.039062 803.71875 263.347656 C 803.726562 263.660156 803.984375 263.902344 804.296875 263.894531 " fill-opacity="1" fill-rule="nonzero"/><path fill="#d4d4c2" d="M 813.570312 266.582031 L 929.269531 265.097656 C 929.578125 265.089844 929.824219 264.832031 929.816406 264.519531 C 929.808594 264.210938 929.550781 263.964844 929.238281 263.972656 L 813.539062 265.457031 C 813.226562 265.464844 812.980469 265.722656 812.988281 266.035156 C 813 266.34375 813.257812 266.589844 813.570312 266.582031 " fill-opacity="1" fill-rule="nonzero"/><path fill="#d4d4c2" d="M 804.09375 258.269531 L 929.097656 256.042969 C 929.410156 256.035156 929.652344 255.777344 929.644531 255.46875 C 929.636719 255.15625 929.375 254.910156 929.066406 254.921875 L 804.0625 257.144531 C 803.753906 257.15625 803.507812 257.414062 803.515625 257.722656 C 803.527344 258.035156 803.785156 258.277344 804.09375 258.269531 " fill-opacity="1" fill-rule="nonzero"/><path fill="#d4d4c2" d="M 803.109375 255.03125 L 929.019531 252.671875 C 929.332031 252.664062 929.578125 252.40625 929.570312 252.097656 C 929.5625 251.785156 929.300781 251.542969 928.988281 251.550781 L 803.082031 253.910156 C 802.765625 253.917969 802.519531 254.175781 802.527344 254.488281 C 802.539062 254.796875 802.796875 255.039062 803.109375 255.03125 " fill-opacity="1" fill-rule="nonzero"/><path fill="#fafbec" d="M 939.691406 160.445312 C 939.609375 154.46875 942.5625 149.246094 946.9375 146.644531 C 945.640625 145.617188 944 145.007812 942.226562 145.03125 L 804.222656 147.753906 C 800.140625 147.808594 796.847656 151.183594 796.902344 155.253906 L 797.125 172.039062 C 797.179688 176.109375 800.566406 179.398438 804.648438 179.339844 L 942.652344 176.617188 C 944.703125 176.589844 946.554688 175.722656 947.882812 174.351562 C 943.132812 172 939.773438 166.679688 939.691406 160.445312 " fill-opacity="1" fill-rule="nonzero"/><g clip-path="url(#fdd4a57058)"><path fill="#84bca9" d="M 951.261719 177.648438 C 950.824219 178.425781 950.105469 179.054688 949.21875 179.363281 C 947.214844 180.058594 809.371094 182.554688 802.703125 181.804688 C 799.894531 181.042969 797.449219 178.902344 796.296875 176.230469 C 795.378906 174.109375 794.789062 153.394531 796.050781 150.503906 C 797.707031 146.699219 801.875 144.296875 805.960938 144.242188 C 812.234375 144.15625 933.039062 141.667969 945.328125 141.484375 C 947.070312 141.457031 949.007812 141.503906 950.273438 142.703125 C 951.410156 143.78125 951.09375 145.972656 949.109375 147.253906 C 946.613281 148.859375 805.8125 150.628906 803.765625 152.507812 C 801.910156 154.21875 802.527344 168.21875 802.996094 171.648438 C 803.375 174.449219 805.648438 175.078125 808.183594 175.042969 C 832.96875 174.347656 946.535156 172.878906 949.234375 173.304688 C 950.089844 173.4375 951.277344 174.148438 951.453125 174.558594 C 951.902344 175.605469 951.777344 176.730469 951.261719 177.648438 " fill-opacity="1" fill-rule="nonzero"/></g><path fill="#d4d4c2" d="M 934.917969 169.457031 L 809.910156 171.355469 C 809.601562 171.359375 809.347656 171.105469 809.347656 170.796875 C 809.34375 170.488281 809.59375 170.234375 809.90625 170.230469 L 934.914062 168.335938 C 935.222656 168.332031 935.476562 168.582031 935.480469 168.894531 C 935.480469 169.203125 935.230469 169.457031 934.917969 169.457031 " fill-opacity="1" fill-rule="nonzero"/><path fill="#d4d4c2" d="M 935.085938 162.492188 L 810.078125 164.386719 C 809.769531 164.386719 809.515625 164.140625 809.515625 163.828125 C 809.511719 163.515625 809.761719 163.265625 810.074219 163.265625 L 935.082031 161.367188 C 935.390625 161.363281 935.644531 161.613281 935.644531 161.925781 C 935.648438 162.234375 935.398438 162.488281 935.085938 162.492188 " fill-opacity="1" fill-rule="nonzero"/><path fill="#d4d4c2" d="M 925.910156 165.480469 L 810.222656 167.8125 C 809.910156 167.816406 809.660156 167.566406 809.65625 167.253906 C 809.65625 166.945312 809.90625 166.691406 810.21875 166.691406 L 925.902344 164.355469 C 926.214844 164.355469 926.464844 164.605469 926.46875 164.914062 C 926.46875 165.226562 926.21875 165.480469 925.910156 165.480469 " fill-opacity="1" fill-rule="nonzero"/><path fill="#d4d4c2" d="M 935.101562 156.863281 L 810.09375 158.757812 C 809.785156 158.761719 809.53125 158.511719 809.527344 158.199219 C 809.527344 157.890625 809.777344 157.636719 810.089844 157.636719 L 935.097656 155.738281 C 935.40625 155.738281 935.660156 155.988281 935.664062 156.296875 C 935.664062 156.609375 935.414062 156.859375 935.101562 156.863281 " fill-opacity="1" fill-rule="nonzero"/><path fill="#d4d4c2" d="M 935.980469 153.59375 L 810.0625 155.386719 C 809.75 155.386719 809.492188 155.140625 809.492188 154.828125 C 809.488281 154.515625 809.742188 154.265625 810.054688 154.265625 L 935.972656 152.46875 C 936.285156 152.46875 936.542969 152.71875 936.542969 153.027344 C 936.546875 153.339844 936.292969 153.59375 935.980469 153.59375 " fill-opacity="1" fill-rule="nonzero"/><g clip-path="url(#981a4600bf)"><path fill="#fac608" d="M 928.585938 199.921875 C 928.632812 204.796875 924.710938 208.78125 919.839844 208.839844 L 910.492188 208.933594 L 900.75 209.027344 L 889.746094 209.136719 L 880 209.230469 L 792.296875 210.109375 C 787.414062 210.15625 783.421875 206.242188 783.375 201.375 L 783.257812 189.601562 C 783.203125 184.726562 787.121094 180.742188 792.003906 180.695312 L 880 179.8125 L 889.746094 179.71875 L 900.75 179.605469 L 910.492188 179.503906 L 919.539062 179.417969 C 924.421875 179.371094 928.410156 183.285156 928.464844 188.152344 L 928.585938 199.921875 " fill-opacity="1" fill-rule="nonzero"/></g><path fill="#f68d11" d="M 889.746094 179.71875 L 889.746094 209.136719 L 880 209.230469 L 880 179.8125 L 889.746094 179.71875 " fill-opacity="1" fill-rule="nonzero"/><path fill="#f68d11" d="M 910.492188 179.503906 L 910.492188 208.933594 L 900.75 209.027344 L 900.75 179.605469 L 910.492188 179.503906 " fill-opacity="1" fill-rule="nonzero"/><path fill="#ed586e" d="M 797.875 231.726562 C 797.828125 237.402344 801.871094 242.042969 806.898438 242.105469 L 816.539062 242.21875 L 826.589844 242.328125 L 837.945312 242.457031 L 847.996094 242.566406 L 938.480469 243.585938 C 943.515625 243.640625 947.632812 239.085938 947.679688 233.414062 L 947.804688 219.707031 C 947.859375 214.03125 943.816406 209.390625 938.78125 209.335938 L 847.996094 208.304688 L 837.945312 208.195312 L 826.589844 208.066406 L 816.539062 207.949219 L 807.207031 207.847656 C 802.171875 207.792969 798.054688 212.351562 797.996094 218.015625 L 797.875 231.726562 " fill-opacity="1" fill-rule="nonzero"/><path fill="#f5c538" d="M 814.753906 235.851562 L 863.515625 235.851562 C 865.800781 235.851562 867.65625 234 867.65625 231.714844 L 867.65625 217.246094 C 867.65625 214.964844 865.800781 213.113281 863.515625 213.113281 L 814.753906 213.113281 C 812.46875 213.113281 810.613281 214.964844 810.613281 217.246094 L 810.613281 231.714844 C 810.613281 234 812.46875 235.851562 814.753906 235.851562 " fill-opacity="1" fill-rule="nonzero"/><path fill="#ed586e" d="M 910.492188 264.78125 L 910.691406 289.945312 L 915.425781 282.09375 L 921.121094 289.304688 L 920.714844 264.625 C 920.714844 264.625 913.960938 264.59375 910.492188 264.78125 " fill-opacity="1" fill-rule="nonzero"/><path fill="#f9ab0c" d="M 898.328125 104.988281 L 892.667969 106.894531 L 876.847656 59.753906 L 882.507812 57.847656 L 898.328125 104.988281 " fill-opacity="1" fill-rule="nonzero"/><path fill="#f7bba3" d="M 876.894531 50.507812 L 876.847656 59.753906 L 882.507812 57.847656 L 876.894531 50.507812 " fill-opacity="1" fill-rule="nonzero"/><path fill="#f9ab0c" d="M 879.847656 54.371094 L 876.890625 50.507812 L 876.867188 55.375 L 879.847656 54.371094 " fill-opacity="1" fill-rule="nonzero"/><path fill="#ffffff" d="M 876.847656 59.753906 L 876.871094 55.375 L 876.847656 59.753906 " fill-opacity="1" fill-rule="nonzero"/><path fill="#fccb06" d="M 892.347656 105.933594 L 876.847656 59.753906 L 879.664062 58.804688 L 893.144531 98.964844 L 892.347656 105.933594 " fill-opacity="1" fill-rule="nonzero"/><path fill="#fadaca" d="M 876.847656 59.753906 L 876.871094 55.375 L 878.347656 54.878906 L 879.664062 58.804688 L 876.847656 59.753906 " fill-opacity="1" fill-rule="nonzero"/><path fill="#fccb06" d="M 876.871094 55.375 L 876.894531 50.550781 L 878.347656 54.878906 L 876.871094 55.375 " fill-opacity="1" fill-rule="nonzero"/><path fill="#80cc28" d="M 901.675781 105.460938 L 895.835938 106.726562 L 885.371094 58.109375 L 891.207031 56.847656 L 901.675781 105.460938 " fill-opacity="1" fill-rule="nonzero"/><path fill="#f7bba3" d="M 886.445312 48.925781 L 885.371094 58.109375 L 891.207031 56.847656 L 886.445312 48.925781 " fill-opacity="1" fill-rule="nonzero"/><path fill="#80cc28" d="M 888.949219 53.09375 L 886.441406 48.925781 L 885.875 53.761719 L 888.949219 53.09375 " fill-opacity="1" fill-rule="nonzero"/><path fill="#b4dc18" d="M 893.5 95.863281 L 885.371094 58.109375 L 888.273438 57.480469 L 894.550781 86.640625 L 893.5 95.863281 " fill-opacity="1" fill-rule="nonzero"/><path fill="#fadaca" d="M 885.371094 58.109375 L 885.878906 53.761719 L 887.402344 53.429688 L 888.273438 57.480469 L 885.371094 58.109375 " fill-opacity="1" fill-rule="nonzero"/><path fill="#b4dc18" d="M 885.878906 53.761719 L 886.441406 48.96875 L 887.402344 53.429688 L 885.878906 53.761719 " fill-opacity="1" fill-rule="nonzero"/><path fill="#f57615" d="M 898.171875 107.5625 L 892.238281 106.882812 L 897.886719 57.46875 L 903.820312 58.152344 L 898.171875 107.5625 " fill-opacity="1" fill-rule="nonzero"/><path fill="#f7bba3" d="M 901.847656 49.117188 L 897.886719 57.46875 L 903.820312 58.152344 L 901.847656 49.117188 " fill-opacity="1" fill-rule="nonzero"/><path fill="#f57615" d="M 902.882812 53.871094 L 901.84375 49.117188 L 899.757812 53.511719 L 902.882812 53.871094 " fill-opacity="1" fill-rule="nonzero"/><path fill="#ffffff" d="M 897.886719 57.46875 L 899.761719 53.511719 L 897.886719 57.46875 " fill-opacity="1" fill-rule="nonzero"/><path fill="#f9a60d" d="M 895.195312 107.207031 L 892.242188 106.867188 L 897.886719 57.46875 L 900.839844 57.808594 L 895.398438 105.410156 L 895.171875 106.40625 L 895.28125 106.429688 L 895.195312 107.207031 " fill-opacity="1" fill-rule="nonzero"/><path fill="#fadaca" d="M 900.839844 57.808594 L 897.886719 57.46875 L 899.761719 53.511719 L 901.308594 53.691406 L 900.839844 57.808594 " fill-opacity="1" fill-rule="nonzero"/><path fill="#f9a60d" d="M 901.308594 53.691406 L 899.761719 53.511719 L 901.828125 49.15625 L 901.308594 53.691406 " fill-opacity="1" fill-rule="nonzero"/><path fill="#ed127c" d="M 901 107.730469 L 895.171875 106.40625 L 906.144531 57.902344 L 911.972656 59.226562 L 901 107.730469 " fill-opacity="1" fill-rule="nonzero"/><path fill="#f7bba3" d="M 910.988281 50.03125 L 906.144531 57.902344 L 911.972656 59.226562 L 910.988281 50.03125 " fill-opacity="1" fill-rule="nonzero"/><path fill="#ed127c" d="M 911.5 54.871094 L 910.984375 50.03125 L 908.4375 54.171875 L 911.5 54.871094 " fill-opacity="1" fill-rule="nonzero"/><path fill="#ffffff" d="M 906.144531 57.902344 L 908.441406 54.175781 L 906.144531 57.902344 " fill-opacity="1" fill-rule="nonzero"/><path fill="#ef2f92" d="M 898.074219 107.050781 L 895.175781 106.394531 L 906.144531 57.902344 L 909.042969 58.5625 L 898.074219 107.050781 " fill-opacity="1" fill-rule="nonzero"/><path fill="#fadaca" d="M 909.042969 58.5625 L 906.144531 57.902344 L 908.441406 54.175781 L 909.957031 54.519531 L 909.042969 58.5625 " fill-opacity="1" fill-rule="nonzero"/><path fill="#ef2f92" d="M 909.957031 54.519531 L 908.441406 54.175781 L 910.964844 50.070312 L 909.957031 54.519531 " fill-opacity="1" fill-rule="nonzero"/><g clip-path="url(#1559b997a9)"><path fill="#ec008c" d="M 862.128906 50.582031 L 857.746094 52.058594 L 854.675781 42.902344 L 859.054688 41.421875 L 862.128906 50.582031 " fill-opacity="1" fill-rule="nonzero"/></g><path fill="#868484" d="M 887.792969 89.515625 L 888.402344 99.214844 L 859.589844 57.339844 L 864.464844 54.066406 L 887.792969 89.515625 " fill-opacity="1" fill-rule="nonzero"/><path fill="#bdbcbc" d="M 860.757812 98.628906 L 866.113281 106.726562 L 863.839844 55.90625 L 857.984375 56.25 L 860.757812 98.628906 " fill-opacity="1" fill-rule="nonzero"/><path fill="#bdbcbc" d="M 862.980469 49.410156 L 856.359375 51.640625 L 859.121094 59.871094 L 865.742188 57.640625 L 862.980469 49.410156 " fill-opacity="1" fill-rule="nonzero"/><path fill="#ec008c" d="M 869.011719 57.613281 C 870.175781 61.074219 868.3125 64.828125 864.859375 65.992188 C 861.402344 67.15625 857.660156 65.292969 856.496094 61.828125 C 855.335938 58.363281 857.195312 54.609375 860.648438 53.445312 C 864.109375 52.28125 867.851562 54.144531 869.011719 57.613281 " fill-opacity="1" fill-rule="nonzero"/><path fill="#ffffff" d="M 865.769531 58.707031 C 866.328125 60.371094 865.429688 62.179688 863.765625 62.738281 C 862.101562 63.300781 860.300781 62.402344 859.742188 60.734375 C 859.179688 59.066406 860.074219 57.261719 861.742188 56.699219 C 863.40625 56.136719 865.207031 57.035156 865.769531 58.707031 " fill-opacity="1" fill-rule="nonzero"/><g clip-path="url(#83ac648dc3)"><path fill="#64c9de" d="M 901.082031 140.152344 L 864.796875 140.152344 L 855.667969 80.332031 L 910.210938 80.332031 L 901.082031 140.152344 " fill-opacity="1" fill-rule="nonzero"/></g><g clip-path="url(#c028df76b9)"><path fill="#53a5b8" d="M 912.9375 76.347656 L 852.941406 76.347656 L 852.941406 80.332031 L 912.9375 80.332031 L 912.9375 76.347656 " fill-opacity="1" fill-rule="nonzero"/></g><g fill="#00707b" fill-opacity="1"><g transform="translate(374.4019, 175.771798)"><g><path d="M 16.75 -46.96875 L 16.796875 -45.390625 C 16.828125 -44.921875 16.914062 -44.46875 17.0625 -44.03125 C 17.207031 -43.507812 17.53125 -43.347656 18.03125 -43.546875 L 19.46875 -44.171875 L 20.875 -44.875 C 21.925781 -45.394531 22.789062 -45.992188 23.46875 -46.671875 C 24.375 -47.515625 24.882812 -48.460938 25 -49.515625 C 25.257812 -51.972656 25.15625 -54.140625 24.6875 -56.015625 C 23.90625 -58.992188 22.179688 -61.347656 19.515625 -63.078125 C 18.753906 -63.546875 18.039062 -63.628906 17.375 -63.328125 L 16.890625 -63.15625 L 16.359375 -62.984375 C 15.953125 -62.835938 15.765625 -62.53125 15.796875 -62.0625 L 16.484375 -52.234375 L 16.796875 -46.96875 Z M 17.40625 -30.609375 C 16.820312 -26.753906 16.601562 -23.453125 16.75 -20.703125 C 16.78125 -19.910156 16.707031 -18.972656 16.53125 -17.890625 C 16.382812 -17.015625 16.328125 -16.035156 16.359375 -14.953125 L 16.265625 -11.84375 L 16.09375 -8.8125 L 16.015625 4.03125 C 16.015625 5.4375 15.804688 6.578125 15.390625 7.453125 L 15.046875 8.25 L 14.734375 9.078125 C 14.503906 9.753906 14.253906 10.28125 13.984375 10.65625 L 13.640625 11.1875 L 13.296875 11.671875 C 12.679688 12.367188 11.929688 12.53125 11.046875 12.15625 L 6.140625 9.875 C 4.503906 9.132812 3.566406 7.742188 3.328125 5.703125 L 3.03125 2.234375 L 2.71875 -0.921875 L 2.546875 -4.078125 L 2.40625 -6.796875 L 2.109375 -9.515625 L 1.140625 -18.078125 C 0.960938 -19.503906 0.816406 -21.285156 0.703125 -23.421875 L 0.34375 -28.734375 C 0.113281 -32.179688 0.015625 -36.203125 0.046875 -40.796875 L 0.125 -46.796875 L 0.21875 -52.8125 L 0.34375 -60.390625 L 0.484375 -67.9375 C 0.515625 -69.457031 0.9375 -70.71875 1.75 -71.71875 C 2.457031 -72.5625 3.304688 -72.984375 4.296875 -72.984375 C 5.554688 -72.953125 6.492188 -72.878906 7.109375 -72.765625 L 9.171875 -72.375 L 11.234375 -71.9375 C 12.046875 -71.757812 12.660156 -71.257812 13.078125 -70.4375 C 13.660156 -69.238281 14.242188 -68.363281 14.828125 -67.8125 L 15.09375 -67.453125 L 15.265625 -67.0625 C 15.640625 -66.300781 16.253906 -66.007812 17.109375 -66.1875 L 17.453125 -66.234375 L 17.8125 -66.3125 C 19.207031 -66.8125 20.695312 -66.566406 22.28125 -65.578125 C 23.800781 -64.640625 25.5 -62.8125 27.375 -60.09375 C 28.75 -58.132812 29.59375 -56.160156 29.90625 -54.171875 C 30.351562 -51.484375 29.945312 -48.9375 28.6875 -46.53125 C 28.425781 -46.007812 27.988281 -45.394531 27.375 -44.6875 L 26.671875 -43.8125 L 26.015625 -42.890625 C 25.722656 -42.484375 25.207031 -42.101562 24.46875 -41.75 L 23.328125 -41.28125 C 22.628906 -40.925781 22.457031 -40.410156 22.8125 -39.734375 L 23.859375 -37.546875 L 25 -35.359375 L 26.5 -32.9375 L 27.984375 -30.578125 L 28.328125 -30.046875 L 28.640625 -29.5625 C 29.628906 -27.71875 30.972656 -25.46875 32.671875 -22.8125 L 34.734375 -19.515625 L 36.84375 -16.234375 L 37.546875 -15.21875 C 38.273438 -14.28125 39.0625 -13.15625 39.90625 -11.84375 L 42.15625 -8.375 L 44.875 -4.078125 C 45.425781 -3.203125 45.894531 -2.253906 46.28125 -1.234375 C 46.71875 -0.0351562 46.773438 0.929688 46.453125 1.671875 C 46.335938 1.992188 46.320312 2.328125 46.40625 2.671875 C 46.519531 3.140625 46.503906 3.640625 46.359375 4.171875 L 46.140625 4.875 L 45.875 5.578125 C 45.789062 5.835938 45.585938 6.023438 45.265625 6.140625 C 44.472656 6.460938 43.976562 6.59375 43.78125 6.53125 C 43.539062 6.476562 43.171875 6.113281 42.671875 5.4375 L 41.890625 4.25 C 41.535156 3.582031 41.050781 3.015625 40.4375 2.546875 C 39.769531 2.015625 39.15625 1.3125 38.59375 0.4375 L 36.578125 -2.625 L 35.921875 -3.46875 C 35.097656 -4.34375 34.132812 -5.523438 33.03125 -7.015625 L 31.671875 -8.859375 L 30.3125 -10.65625 C 28.226562 -13.257812 26.632812 -15.4375 25.53125 -17.1875 L 23.59375 -20.125 L 21.625 -23.03125 C 20.539062 -24.601562 19.585938 -26.285156 18.765625 -28.078125 L 18.15625 -29.34375 Z M 17.40625 -30.609375 "/></g></g><g transform="translate(429.093551, 175.771798)"><g><path d="M 40.09375 -56.1875 C 32.164062 -58.207031 24.835938 -58.601562 18.109375 -57.375 C 16.179688 -57.019531 14.941406 -57.734375 14.390625 -59.515625 L 13.859375 -61.453125 L 13.203125 -65.09375 L 12.546875 -68.78125 C 12.015625 -71.664062 11.328125 -74.046875 10.484375 -75.921875 C 10.015625 -76.972656 10.425781 -77.53125 11.71875 -77.59375 L 14.21875 -77.640625 L 16.71875 -77.71875 C 18.613281 -77.832031 20.25 -78.113281 21.625 -78.5625 L 22.1875 -78.6875 L 22.765625 -78.859375 C 23.171875 -79.035156 23.347656 -79.359375 23.296875 -79.828125 C 23.234375 -80.265625 22.984375 -80.539062 22.546875 -80.65625 L 21.96875 -80.796875 L 21.359375 -80.796875 L 3.734375 -81.453125 C 2.941406 -81.453125 2.117188 -80.984375 1.265625 -80.046875 C 0.421875 -79.140625 0 -78.265625 0 -77.421875 L 0.125 -71.140625 L 0.265625 -64.875 C 0.347656 -59.925781 0.316406 -55.742188 0.171875 -52.328125 C 0.0546875 -49.109375 0.113281 -45.347656 0.34375 -41.046875 L 0.65625 -35.4375 L 1.015625 -29.828125 C 1.597656 -20.441406 1.523438 -12.941406 0.796875 -7.328125 C 0.410156 -5.078125 1.328125 -3.144531 3.546875 -1.53125 C 5.742188 0.0390625 7.910156 0.40625 10.046875 -0.4375 C 14.367188 -2.1875 20.769531 -3.328125 29.25 -3.859375 L 31.09375 -3.953125 L 32.9375 -3.984375 C 34.375 -4.109375 35.585938 -4.40625 36.578125 -4.875 L 36.96875 -5.09375 L 37.375 -5.34375 C 37.601562 -5.582031 37.691406 -5.863281 37.640625 -6.1875 C 37.546875 -6.507812 37.351562 -6.757812 37.0625 -6.9375 C 36.769531 -7.101562 36.476562 -7.160156 36.1875 -7.109375 C 35.132812 -6.929688 33.9375 -6.882812 32.59375 -6.96875 L 28.953125 -7.328125 C 25.878906 -7.648438 23.46875 -7.53125 21.71875 -6.96875 C 20.28125 -6.5 19.867188 -7 20.484375 -8.46875 C 21.503906 -10.894531 21.914062 -13.4375 21.71875 -16.09375 L 21.453125 -20.53125 L 21.234375 -24.953125 L 21.046875 -27.765625 L 20.875 -30.53125 C 20.695312 -32.6875 20.300781 -34.484375 19.6875 -35.921875 C 18.78125 -38.023438 18.109375 -40.484375 17.671875 -43.296875 L 17.234375 -47.0625 L 16.890625 -50.828125 C 16.796875 -52.003906 17.289062 -52.609375 18.375 -52.640625 C 19.601562 -52.640625 21.390625 -52.753906 23.734375 -52.984375 L 26.40625 -53.203125 L 29.078125 -53.328125 L 34.515625 -53.328125 C 36.648438 -53.359375 38.460938 -53.566406 39.953125 -53.953125 C 40.773438 -54.179688 41.21875 -54.503906 41.28125 -54.921875 C 41.363281 -55.328125 41.257812 -55.628906 40.96875 -55.828125 L 40.53125 -56.0625 Z M 40.09375 -56.1875 "/></g></g><g transform="translate(479.267769, 175.771798)"><g><path d="M 20.921875 -48.109375 C 20.546875 -46.890625 20.222656 -45.488281 19.953125 -43.90625 L 19.4375 -39.734375 L 19.125 -36.578125 C 18.976562 -35.378906 18.800781 -34.328125 18.59375 -33.421875 L 18.46875 -32.453125 C 18.40625 -31.960938 18.625 -31.71875 19.125 -31.71875 C 19.5 -31.71875 19.878906 -31.757812 20.265625 -31.84375 L 24.390625 -32.765625 C 25.265625 -32.972656 25.585938 -33.539062 25.359375 -34.46875 L 24.953125 -35.875 L 23.765625 -39.4375 L 22.859375 -42.453125 L 21.890625 -45.53125 L 21.453125 -46.796875 Z M 0.484375 -0.09375 L 0.53125 -1.53125 C 0.5 -2.113281 0.523438 -2.773438 0.609375 -3.515625 C 0.734375 -4.273438 0.796875 -5.035156 0.796875 -5.796875 C 0.703125 -7.867188 0.929688 -10.90625 1.484375 -14.90625 L 2.015625 -19.46875 L 2.546875 -24.6875 L 3.0625 -29.875 L 3.328125 -31.578125 L 3.59375 -33.296875 L 4.125 -38.640625 L 4.6875 -44.03125 L 5.046875 -46.9375 L 5.4375 -49.875 L 5.796875 -52.59375 L 6.1875 -55.3125 C 6.476562 -57.476562 6.640625 -59.289062 6.671875 -60.75 L 6.796875 -61.796875 L 6.96875 -62.859375 L 7.625 -68.375 C 7.71875 -69.195312 8.070312 -69.710938 8.6875 -69.921875 C 9.53125 -70.234375 10.242188 -70.859375 10.828125 -71.796875 L 11.09375 -72.15625 L 11.359375 -72.453125 C 11.679688 -72.773438 11.972656 -72.820312 12.234375 -72.59375 C 12.523438 -72.382812 12.960938 -72.164062 13.546875 -71.9375 L 14.25 -71.671875 L 14.875 -71.3125 C 15.425781 -70.9375 16.097656 -70.734375 16.890625 -70.703125 C 18.816406 -70.671875 20.25 -69.585938 21.1875 -67.453125 C 22.382812 -64.734375 23.695312 -60.800781 25.125 -55.65625 L 26.015625 -52.671875 L 26.796875 -49.6875 L 27.234375 -48.421875 L 27.671875 -47.1875 L 28.515625 -44.65625 L 29.34375 -42.0625 C 30.039062 -39.957031 30.550781 -38.234375 30.875 -36.890625 C 31.164062 -35.804688 31.601562 -34.691406 32.1875 -33.546875 L 32.8125 -32.015625 L 33.328125 -30.484375 L 35.53125 -25 L 35.796875 -24.46875 L 35.921875 -23.953125 C 35.984375 -23.066406 36.21875 -22.097656 36.625 -21.046875 L 37.15625 -19.734375 L 37.765625 -18.375 C 38.285156 -17.269531 38.84375 -15.957031 39.4375 -14.4375 L 40.875 -10.4375 C 41.34375 -9.175781 41.898438 -7.816406 42.546875 -6.359375 C 42.921875 -5.484375 43.179688 -4.546875 43.328125 -3.546875 C 43.390625 -3.140625 43.390625 -2.703125 43.328125 -2.234375 C 43.179688 -1.117188 42.539062 -0.476562 41.40625 -0.3125 C 40.90625 -0.21875 40.523438 -0.363281 40.265625 -0.75 L 39.21875 -2.1875 L 38.15625 -3.640625 C 37.3125 -4.773438 36.679688 -5.796875 36.265625 -6.703125 L 34.5625 -10.21875 L 32.890625 -13.734375 C 31.660156 -16.421875 30.664062 -18.816406 29.90625 -20.921875 L 28.765625 -24.171875 L 27.625 -27.40625 L 27.5 -27.859375 L 27.328125 -28.328125 C 27.117188 -28.859375 26.691406 -29.082031 26.046875 -29 C 23.679688 -28.675781 21.785156 -28.597656 20.359375 -28.765625 C 19.359375 -28.921875 18.695312 -28.863281 18.375 -28.59375 C 18.050781 -28.332031 17.816406 -27.707031 17.671875 -26.71875 L 14.953125 -9.609375 L 14.515625 -7.5 L 13.515625 -3.203125 C 12.984375 -0.566406 12.207031 1.507812 11.1875 3.03125 C 10.925781 3.4375 10.722656 4.003906 10.578125 4.734375 C 10.398438 5.671875 9.796875 6.519531 8.765625 7.28125 C 7.742188 8.007812 6.753906 8.347656 5.796875 8.296875 L 3.6875 8.203125 C 3.125 8.234375 2.597656 8.085938 2.109375 7.765625 L 1.484375 7.28125 L 0.875 6.703125 C 0.289062 6.148438 0.03125 5.347656 0.09375 4.296875 Z M 0.484375 -0.09375 "/></g></g><g transform="translate(531.020896, 175.771798)"><g><path d="M 19.078125 -19.125 C 18.992188 -15.09375 17.285156 -11.234375 13.953125 -7.546875 C 13.828125 -7.429688 13.738281 -7.269531 13.6875 -7.0625 C 13.625 -6.851562 13.625 -6.707031 13.6875 -6.625 C 13.800781 -6.414062 13.960938 -6.34375 14.171875 -6.40625 L 14.46875 -6.53125 L 14.734375 -6.671875 L 17.40625 -8.03125 C 18.457031 -8.550781 19.320312 -9.046875 20 -9.515625 C 25.382812 -13.234375 29.859375 -18.191406 33.421875 -24.390625 C 38.421875 -33.128906 40.234375 -41.476562 38.859375 -49.4375 C 37.890625 -54.90625 34.191406 -60.765625 27.765625 -67.015625 L 25.578125 -69.21875 C 24.691406 -70.0625 23.929688 -70.75 23.296875 -71.28125 C 21.503906 -72.769531 19.703125 -73.789062 17.890625 -74.34375 L 17.546875 -74.484375 L 17.234375 -74.703125 C 16.941406 -74.816406 16.691406 -74.785156 16.484375 -74.609375 C 16.316406 -74.429688 16.257812 -74.195312 16.3125 -73.90625 L 16.40625 -73.515625 L 16.53125 -73.15625 L 17.40625 -69.703125 L 18.328125 -66.234375 C 18.972656 -63.546875 19.382812 -61.207031 19.5625 -59.21875 C 20.113281 -52.132812 20.226562 -45.453125 19.90625 -39.171875 L 19.828125 -34.34375 L 19.875 -29.4375 C 19.875 -25.394531 19.609375 -21.957031 19.078125 -19.125 Z M 46.75 -34.90625 C 45.96875 -29.125 42.253906 -22.546875 35.609375 -15.171875 C 32.367188 -11.578125 28.410156 -8.679688 23.734375 -6.484375 C 21.066406 -5.265625 17.671875 -4.519531 13.546875 -4.25 L 13.03125 -4.25 L 12.453125 -4.203125 C 12.015625 -4.148438 11.769531 -3.976562 11.71875 -3.6875 C 11.363281 -2.28125 10.5 -1.429688 9.125 -1.140625 L 8.25 -0.96875 L 7.328125 -0.875 C 6.566406 -0.789062 5.984375 -0.660156 5.578125 -0.484375 C 3.992188 0.210938 2.925781 0.15625 2.375 -0.65625 C 2.132812 -0.945312 1.957031 -1.398438 1.84375 -2.015625 L 1.703125 -2.84375 L 1.53125 -3.6875 C 1.09375 -6.164062 0.945312 -9.144531 1.09375 -12.625 L 1.359375 -17.109375 L 1.625 -21.578125 C 1.832031 -26.140625 1.90625 -31.332031 1.84375 -37.15625 L 1.484375 -52.71875 C 1.460938 -54.644531 1.347656 -56.984375 1.140625 -59.734375 L 0.609375 -66.75 C 0.203125 -72.488281 0.128906 -77.1875 0.390625 -80.84375 C 0.453125 -81.863281 0.757812 -82.390625 1.3125 -82.421875 C 2.894531 -82.472656 3.859375 -83.476562 4.203125 -85.4375 L 4.296875 -85.875 L 4.4375 -86.3125 C 4.582031 -86.632812 4.84375 -86.796875 5.21875 -86.796875 C 5.570312 -86.796875 5.835938 -86.648438 6.015625 -86.359375 L 6.140625 -85.921875 L 6.234375 -85.4375 C 6.460938 -84.007812 7.351562 -83.132812 8.90625 -82.8125 C 9.894531 -82.570312 10.875 -82.070312 11.84375 -81.3125 C 12.488281 -80.851562 13.289062 -80.082031 14.25 -79 C 14.863281 -78.351562 15.640625 -77.957031 16.578125 -77.8125 L 20 -77.203125 L 23.375 -76.453125 C 25.863281 -75.867188 28.039062 -75.132812 29.90625 -74.25 C 31.082031 -73.695312 32.269531 -72.734375 33.46875 -71.359375 L 34.90625 -69.609375 C 35.46875 -68.929688 35.96875 -68.390625 36.40625 -67.984375 C 43.25 -61.523438 46.816406 -51.90625 47.109375 -39.125 L 47.109375 -36.890625 C 47.078125 -36.066406 46.957031 -35.40625 46.75 -34.90625 Z M 46.75 -34.90625 "/></g></g><g transform="translate(588.212487, 175.771798)"><g><path d="M 30.484375 -35 C 30.691406 -24.625 30.222656 -15.238281 29.078125 -6.84375 L 28.953125 -5.921875 L 28.765625 -5.09375 C 28.597656 -4.445312 28.25 -3.890625 27.71875 -3.421875 C 27.3125 -3.035156 27.269531 -2.785156 27.59375 -2.671875 L 28.03125 -2.625 L 28.515625 -2.625 L 31.53125 -2.453125 L 34.515625 -2.328125 L 35 -2.234375 L 35.4375 -2.15625 C 35.726562 -2.007812 35.875 -1.742188 35.875 -1.359375 C 35.875 -0.535156 35.421875 -0.0820312 34.515625 0 L 32.5 0.21875 L 30.484375 0.34375 C 28.847656 0.46875 27.503906 0.660156 26.453125 0.921875 C 24.492188 1.359375 21.640625 1.359375 17.890625 0.921875 L 13.640625 0.4375 C 12.054688 0.351562 10.625 0.457031 9.34375 0.75 C 9.019531 0.800781 8.769531 0.726562 8.59375 0.53125 L 8.375 0.171875 L 8.203125 -0.21875 C 7.960938 -1.0625 8.285156 -1.601562 9.171875 -1.84375 C 10.953125 -2.25 12.382812 -2.46875 13.46875 -2.5 C 14.925781 -2.582031 15.65625 -3.359375 15.65625 -4.828125 C 15.6875 -20.585938 14.148438 -43.757812 11.046875 -74.34375 C 10.898438 -75.976562 10.082031 -76.722656 8.59375 -76.578125 L 6.75 -76.578125 L 4.953125 -76.75 C 3.460938 -76.8125 2.25 -76.726562 1.3125 -76.5 C 0.84375 -76.375 0.476562 -76.488281 0.21875 -76.84375 C 0.0703125 -77.019531 0.0390625 -77.222656 0.125 -77.453125 L 0.484375 -77.984375 C 1.066406 -78.859375 1.972656 -79.28125 3.203125 -79.25 C 6.148438 -79.132812 10.210938 -79.398438 15.390625 -80.046875 L 21.484375 -80.84375 C 23.765625 -81.070312 25.800781 -81.1875 27.59375 -81.1875 L 29.078125 -81.1875 C 29.691406 -81.1875 30.191406 -81.128906 30.578125 -81.015625 C 31.648438 -80.804688 32.257812 -80.296875 32.40625 -79.484375 C 32.5 -78.804688 32.046875 -78.289062 31.046875 -77.9375 L 29.734375 -77.546875 L 28.421875 -77.234375 C 28.160156 -77.117188 27.75 -77.046875 27.1875 -77.015625 L 25.96875 -76.84375 L 25.484375 -76.71875 L 25.125 -76.453125 C 24.863281 -76.191406 24.894531 -75.898438 25.21875 -75.578125 C 26.125 -74.753906 26.679688 -73.671875 26.890625 -72.328125 L 27.0625 -70.484375 L 27.15625 -68.734375 L 28.296875 -60.359375 L 29.296875 -51.890625 C 30.023438 -45.453125 30.421875 -39.820312 30.484375 -35 Z M 30.484375 -35 "/></g></g><g transform="translate(632.860523, 175.771798)"><g><path d="M 35 -26.046875 C 35.113281 -29.003906 35.070312 -31.257812 34.875 -32.8125 C 34.78125 -33.6875 34.71875 -34.738281 34.6875 -35.96875 L 34.734375 -39.125 L 34.734375 -41.625 C 34.585938 -46.507812 34.585938 -52.019531 34.734375 -58.15625 L 34.953125 -61.53125 L 35.265625 -64.953125 L 35.390625 -69.078125 C 35.421875 -70.097656 35.507812 -70.929688 35.65625 -71.578125 C 35.800781 -72.046875 36.003906 -72.472656 36.265625 -72.859375 C 36.648438 -73.378906 37.117188 -73.566406 37.671875 -73.421875 L 42.1875 -72.328125 C 43.007812 -72.117188 43.757812 -71.753906 44.4375 -71.234375 C 44.925781 -70.796875 45.363281 -70.472656 45.75 -70.265625 C 47.007812 -69.585938 47.882812 -68.429688 48.375 -66.796875 L 50 -60.703125 C 50.144531 -60.148438 50.234375 -59.566406 50.265625 -58.953125 L 50.390625 -53.375 L 50.53125 -49.4375 L 50.578125 -45.484375 C 50.660156 -41.617188 50.570312 -38.632812 50.3125 -36.53125 L 50.265625 -36.1875 L 50.265625 -35.828125 C 50.296875 -35.597656 50.472656 -35.453125 50.796875 -35.390625 L 50.875 -35.21875 L 50.96875 -34.90625 L 50.921875 -34.03125 L 50.21875 -27.234375 L 50.140625 -26.96875 C 50.109375 -26.914062 50.035156 -26.914062 49.921875 -26.96875 C 49.921875 -26.96875 49.785156 -27.144531 49.515625 -27.5 L 49.171875 -25.21875 L 48.859375 -22.984375 C 48.628906 -21.054688 48.570312 -19.390625 48.6875 -17.984375 C 48.800781 -16.378906 48.671875 -14.476562 48.296875 -12.28125 L 48.078125 -10.125 L 47.984375 -9.203125 C 47.722656 -7.628906 46.800781 -6.988281 45.21875 -7.28125 C 42.707031 -7.75 40.820312 -8.273438 39.5625 -8.859375 C 37.976562 -9.585938 36.910156 -10.757812 36.359375 -12.375 L 35.875 -13.515625 L 35.390625 -14.6875 C 34.984375 -15.59375 34.738281 -16.382812 34.65625 -17.0625 L 34.46875 -17.5 L 34.25 -17.890625 L 28.765625 -26.9375 C 28.273438 -27.78125 27.675781 -28.890625 26.96875 -30.265625 L 23.515625 -37.375 L 22.453125 -39.515625 L 21.359375 -41.71875 L 20.609375 -43.15625 L 19.828125 -44.5625 L 19.6875 -44.65625 L 19.515625 -44.734375 C 19.367188 -44.679688 19.296875 -44.566406 19.296875 -44.390625 L 19.34375 -44 L 19.953125 -39.25 L 20.578125 -34.5625 C 21.015625 -31.757812 21.097656 -29.550781 20.828125 -27.9375 C 20.773438 -27.46875 20.789062 -26.867188 20.875 -26.140625 L 21.015625 -24.078125 L 20.921875 -22.015625 C 20.859375 -20.441406 20.640625 -18.453125 20.265625 -16.046875 L 19.828125 -13.078125 L 19.390625 -10.09375 C 19.273438 -9.1875 19.054688 -8.101562 18.734375 -6.84375 L 17.765625 -3.6875 L 16.9375 -0.75 C 16.726562 0.0390625 16.226562 0.507812 15.4375 0.65625 L 14.90625 0.75 C 13.707031 0.6875 12.613281 1.066406 11.625 1.890625 C 11.039062 2.359375 10.425781 2.269531 9.78125 1.625 C 9.488281 1.332031 9.09375 1.054688 8.59375 0.796875 L 7.1875 0.046875 C 6.457031 -0.304688 5.960938 -0.953125 5.703125 -1.890625 L 4.65625 -5.703125 L 3.59375 -9.515625 L 2.890625 -12.671875 C 2.691406 -13.847656 2.59375 -14.914062 2.59375 -15.875 C 2.613281 -16.894531 2.582031 -18.15625 2.5 -19.65625 L 2.234375 -23.375 L 2.015625 -28.515625 C 1.929688 -30.472656 1.769531 -32.164062 1.53125 -33.59375 L 1.40625 -34.734375 L 1.359375 -35.921875 L 0.75 -42.375 L 0.34375 -46.1875 L 0.171875 -50.046875 C 0.0546875 -56.710938 0.0703125 -62.34375 0.21875 -66.9375 L 0.390625 -70.96875 C 0.484375 -72.601562 0.515625 -73.945312 0.484375 -75 C 0.453125 -75.96875 0.9375 -76.628906 1.9375 -76.984375 L 3.734375 -77.5 L 5.53125 -78.03125 L 5.703125 -78.078125 C 6.546875 -78.253906 7.492188 -78.164062 8.546875 -77.8125 L 9.875 -77.28125 L 11.1875 -76.71875 C 12.207031 -76.300781 12.992188 -75.453125 13.546875 -74.171875 L 14.390625 -72.28125 C 14.710938 -71.519531 14.929688 -70.863281 15.046875 -70.3125 C 15.128906 -69.988281 15.304688 -69.679688 15.578125 -69.390625 C 16.160156 -68.691406 16.4375 -67.859375 16.40625 -66.890625 C 16.34375 -65.273438 16.925781 -63.609375 18.15625 -61.890625 C 18.6875 -61.179688 19.257812 -60.203125 19.875 -58.953125 L 22.890625 -52.71875 L 25.796875 -46.453125 L 27.59375 -42.453125 C 28.226562 -40.910156 28.753906 -39.535156 29.171875 -38.328125 C 29.984375 -35.878906 31.140625 -33.191406 32.640625 -30.265625 L 33.46875 -28.515625 L 34.296875 -26.71875 L 34.46875 -26.359375 C 34.59375 -26.242188 34.769531 -26.140625 35 -26.046875 Z M 35 -26.046875 "/></g></g><g transform="translate(692.595911, 175.771798)"><g><path d="M 47.0625 -31.71875 C 45.039062 -32.707031 40.929688 -33.085938 34.734375 -32.859375 C 34.179688 -32.765625 33.378906 -32.703125 32.328125 -32.671875 L 29.734375 -32.546875 C 27.578125 -32.398438 25.765625 -31.972656 24.296875 -31.265625 L 23.8125 -31.140625 L 23.296875 -30.96875 C 22.972656 -30.820312 22.828125 -30.539062 22.859375 -30.125 C 22.910156 -29.75 23.140625 -29.503906 23.546875 -29.390625 L 24.609375 -29.296875 C 26.179688 -29.066406 28.050781 -28.96875 30.21875 -29 L 33.03125 -29.078125 L 35.828125 -29.21875 C 37.492188 -29.269531 38.242188 -28.535156 38.078125 -27.015625 C 37.984375 -26.285156 37.921875 -25.289062 37.890625 -24.03125 L 37.8125 -21.046875 C 37.394531 -14.296875 36.296875 -8.566406 34.515625 -3.859375 C 33.640625 -1.546875 32.28125 -0.597656 30.4375 -1.015625 C 24.96875 -2.210938 21.359375 -4.972656 19.609375 -9.296875 C 17.179688 -15.265625 15.953125 -22.722656 15.921875 -31.671875 L 15.875 -43.734375 C 15.9375 -48.234375 16.054688 -52.265625 16.234375 -55.828125 L 16.53125 -59.34375 L 17.015625 -62.859375 C 17.421875 -65.804688 17.597656 -68.171875 17.546875 -69.953125 C 17.515625 -71.066406 18.007812 -72.09375 19.03125 -73.03125 C 19.445312 -73.40625 19.945312 -73.769531 20.53125 -74.125 L 22.1875 -75.046875 C 22.894531 -75.398438 23.523438 -75.296875 24.078125 -74.734375 L 24.6875 -73.953125 L 25.3125 -73.15625 C 26.363281 -72.070312 27.382812 -70.726562 28.375 -69.125 C 29.394531 -67.457031 30.421875 -65.320312 31.453125 -62.71875 L 32.671875 -59.390625 L 33.90625 -56.0625 L 34.21875 -55.484375 L 34.34375 -55.578125 L 34.390625 -55.65625 C 34.273438 -56.300781 34.421875 -57.148438 34.828125 -58.203125 L 35.265625 -59.4375 C 35.378906 -59.90625 35.410156 -60.34375 35.359375 -60.75 C 34.828125 -64.875 33.160156 -69.640625 30.359375 -75.046875 C 29.128906 -77.472656 27.15625 -79.023438 24.4375 -79.703125 C 21.945312 -80.316406 19.457031 -80.109375 16.96875 -79.078125 C 13.582031 -77.648438 10.71875 -75.8125 8.375 -73.5625 C 5.6875 -71.007812 3.992188 -68.226562 3.296875 -65.21875 C 2.003906 -59.601562 1.253906 -54.867188 1.046875 -51.015625 L 0.5625 -42.671875 L 0.21875 -34.390625 C 0.0703125 -28.066406 0.320312 -22.492188 0.96875 -17.671875 C 2.664062 -4.835938 9.316406 3.507812 20.921875 7.375 C 25.484375 8.863281 29.925781 8.507812 34.25 6.3125 C 38.289062 4.207031 40.804688 0.859375 41.796875 -3.734375 C 42.441406 -6.796875 42.632812 -10.566406 42.375 -15.046875 L 41.9375 -20.703125 L 41.53125 -26.359375 C 41.445312 -28.234375 42.078125 -29.210938 43.421875 -29.296875 L 45.21875 -29.609375 L 47.015625 -30 L 47.375 -30.09375 L 47.71875 -30.21875 C 47.925781 -30.3125 48.046875 -30.488281 48.078125 -30.75 C 48.097656 -31.070312 47.992188 -31.289062 47.765625 -31.40625 L 47.421875 -31.578125 Z M 47.0625 -31.71875 "/></g></g></g><g fill="#ffffff" fill-opacity="1"><g transform="translate(370.432262, 171.802174)"><g><path d="M 16.75 -46.96875 L 16.796875 -45.390625 C 16.828125 -44.921875 16.914062 -44.46875 17.0625 -44.03125 C 17.207031 -43.507812 17.53125 -43.347656 18.03125 -43.546875 L 19.46875 -44.171875 L 20.875 -44.875 C 21.925781 -45.394531 22.789062 -45.992188 23.46875 -46.671875 C 24.375 -47.515625 24.882812 -48.460938 25 -49.515625 C 25.257812 -51.972656 25.15625 -54.140625 24.6875 -56.015625 C 23.90625 -58.992188 22.179688 -61.347656 19.515625 -63.078125 C 18.753906 -63.546875 18.039062 -63.628906 17.375 -63.328125 L 16.890625 -63.15625 L 16.359375 -62.984375 C 15.953125 -62.835938 15.765625 -62.53125 15.796875 -62.0625 L 16.484375 -52.234375 L 16.796875 -46.96875 Z M 17.40625 -30.609375 C 16.820312 -26.753906 16.601562 -23.453125 16.75 -20.703125 C 16.78125 -19.910156 16.707031 -18.972656 16.53125 -17.890625 C 16.382812 -17.015625 16.328125 -16.035156 16.359375 -14.953125 L 16.265625 -11.84375 L 16.09375 -8.8125 L 16.015625 4.03125 C 16.015625 5.4375 15.804688 6.578125 15.390625 7.453125 L 15.046875 8.25 L 14.734375 9.078125 C 14.503906 9.753906 14.253906 10.28125 13.984375 10.65625 L 13.640625 11.1875 L 13.296875 11.671875 C 12.679688 12.367188 11.929688 12.53125 11.046875 12.15625 L 6.140625 9.875 C 4.503906 9.132812 3.566406 7.742188 3.328125 5.703125 L 3.03125 2.234375 L 2.71875 -0.921875 L 2.546875 -4.078125 L 2.40625 -6.796875 L 2.109375 -9.515625 L 1.140625 -18.078125 C 0.960938 -19.503906 0.816406 -21.285156 0.703125 -23.421875 L 0.34375 -28.734375 C 0.113281 -32.179688 0.015625 -36.203125 0.046875 -40.796875 L 0.125 -46.796875 L 0.21875 -52.8125 L 0.34375 -60.390625 L 0.484375 -67.9375 C 0.515625 -69.457031 0.9375 -70.71875 1.75 -71.71875 C 2.457031 -72.5625 3.304688 -72.984375 4.296875 -72.984375 C 5.554688 -72.953125 6.492188 -72.878906 7.109375 -72.765625 L 9.171875 -72.375 L 11.234375 -71.9375 C 12.046875 -71.757812 12.660156 -71.257812 13.078125 -70.4375 C 13.660156 -69.238281 14.242188 -68.363281 14.828125 -67.8125 L 15.09375 -67.453125 L 15.265625 -67.0625 C 15.640625 -66.300781 16.253906 -66.007812 17.109375 -66.1875 L 17.453125 -66.234375 L 17.8125 -66.3125 C 19.207031 -66.8125 20.695312 -66.566406 22.28125 -65.578125 C 23.800781 -64.640625 25.5 -62.8125 27.375 -60.09375 C 28.75 -58.132812 29.59375 -56.160156 29.90625 -54.171875 C 30.351562 -51.484375 29.945312 -48.9375 28.6875 -46.53125 C 28.425781 -46.007812 27.988281 -45.394531 27.375 -44.6875 L 26.671875 -43.8125 L 26.015625 -42.890625 C 25.722656 -42.484375 25.207031 -42.101562 24.46875 -41.75 L 23.328125 -41.28125 C 22.628906 -40.925781 22.457031 -40.410156 22.8125 -39.734375 L 23.859375 -37.546875 L 25 -35.359375 L 26.5 -32.9375 L 27.984375 -30.578125 L 28.328125 -30.046875 L 28.640625 -29.5625 C 29.628906 -27.71875 30.972656 -25.46875 32.671875 -22.8125 L 34.734375 -19.515625 L 36.84375 -16.234375 L 37.546875 -15.21875 C 38.273438 -14.28125 39.0625 -13.15625 39.90625 -11.84375 L 42.15625 -8.375 L 44.875 -4.078125 C 45.425781 -3.203125 45.894531 -2.253906 46.28125 -1.234375 C 46.71875 -0.0351562 46.773438 0.929688 46.453125 1.671875 C 46.335938 1.992188 46.320312 2.328125 46.40625 2.671875 C 46.519531 3.140625 46.503906 3.640625 46.359375 4.171875 L 46.140625 4.875 L 45.875 5.578125 C 45.789062 5.835938 45.585938 6.023438 45.265625 6.140625 C 44.472656 6.460938 43.976562 6.59375 43.78125 6.53125 C 43.539062 6.476562 43.171875 6.113281 42.671875 5.4375 L 41.890625 4.25 C 41.535156 3.582031 41.050781 3.015625 40.4375 2.546875 C 39.769531 2.015625 39.15625 1.3125 38.59375 0.4375 L 36.578125 -2.625 L 35.921875 -3.46875 C 35.097656 -4.34375 34.132812 -5.523438 33.03125 -7.015625 L 31.671875 -8.859375 L 30.3125 -10.65625 C 28.226562 -13.257812 26.632812 -15.4375 25.53125 -17.1875 L 23.59375 -20.125 L 21.625 -23.03125 C 20.539062 -24.601562 19.585938 -26.285156 18.765625 -28.078125 L 18.15625 -29.34375 Z M 17.40625 -30.609375 "/></g></g><g transform="translate(425.123913, 171.802174)"><g><path d="M 40.09375 -56.1875 C 32.164062 -58.207031 24.835938 -58.601562 18.109375 -57.375 C 16.179688 -57.019531 14.941406 -57.734375 14.390625 -59.515625 L 13.859375 -61.453125 L 13.203125 -65.09375 L 12.546875 -68.78125 C 12.015625 -71.664062 11.328125 -74.046875 10.484375 -75.921875 C 10.015625 -76.972656 10.425781 -77.53125 11.71875 -77.59375 L 14.21875 -77.640625 L 16.71875 -77.71875 C 18.613281 -77.832031 20.25 -78.113281 21.625 -78.5625 L 22.1875 -78.6875 L 22.765625 -78.859375 C 23.171875 -79.035156 23.347656 -79.359375 23.296875 -79.828125 C 23.234375 -80.265625 22.984375 -80.539062 22.546875 -80.65625 L 21.96875 -80.796875 L 21.359375 -80.796875 L 3.734375 -81.453125 C 2.941406 -81.453125 2.117188 -80.984375 1.265625 -80.046875 C 0.421875 -79.140625 0 -78.265625 0 -77.421875 L 0.125 -71.140625 L 0.265625 -64.875 C 0.347656 -59.925781 0.316406 -55.742188 0.171875 -52.328125 C 0.0546875 -49.109375 0.113281 -45.347656 0.34375 -41.046875 L 0.65625 -35.4375 L 1.015625 -29.828125 C 1.597656 -20.441406 1.523438 -12.941406 0.796875 -7.328125 C 0.410156 -5.078125 1.328125 -3.144531 3.546875 -1.53125 C 5.742188 0.0390625 7.910156 0.40625 10.046875 -0.4375 C 14.367188 -2.1875 20.769531 -3.328125 29.25 -3.859375 L 31.09375 -3.953125 L 32.9375 -3.984375 C 34.375 -4.109375 35.585938 -4.40625 36.578125 -4.875 L 36.96875 -5.09375 L 37.375 -5.34375 C 37.601562 -5.582031 37.691406 -5.863281 37.640625 -6.1875 C 37.546875 -6.507812 37.351562 -6.757812 37.0625 -6.9375 C 36.769531 -7.101562 36.476562 -7.160156 36.1875 -7.109375 C 35.132812 -6.929688 33.9375 -6.882812 32.59375 -6.96875 L 28.953125 -7.328125 C 25.878906 -7.648438 23.46875 -7.53125 21.71875 -6.96875 C 20.28125 -6.5 19.867188 -7 20.484375 -8.46875 C 21.503906 -10.894531 21.914062 -13.4375 21.71875 -16.09375 L 21.453125 -20.53125 L 21.234375 -24.953125 L 21.046875 -27.765625 L 20.875 -30.53125 C 20.695312 -32.6875 20.300781 -34.484375 19.6875 -35.921875 C 18.78125 -38.023438 18.109375 -40.484375 17.671875 -43.296875 L 17.234375 -47.0625 L 16.890625 -50.828125 C 16.796875 -52.003906 17.289062 -52.609375 18.375 -52.640625 C 19.601562 -52.640625 21.390625 -52.753906 23.734375 -52.984375 L 26.40625 -53.203125 L 29.078125 -53.328125 L 34.515625 -53.328125 C 36.648438 -53.359375 38.460938 -53.566406 39.953125 -53.953125 C 40.773438 -54.179688 41.21875 -54.503906 41.28125 -54.921875 C 41.363281 -55.328125 41.257812 -55.628906 40.96875 -55.828125 L 40.53125 -56.0625 Z M 40.09375 -56.1875 "/></g></g><g transform="translate(475.298131, 171.802174)"><g><path d="M 20.921875 -48.109375 C 20.546875 -46.890625 20.222656 -45.488281 19.953125 -43.90625 L 19.4375 -39.734375 L 19.125 -36.578125 C 18.976562 -35.378906 18.800781 -34.328125 18.59375 -33.421875 L 18.46875 -32.453125 C 18.40625 -31.960938 18.625 -31.71875 19.125 -31.71875 C 19.5 -31.71875 19.878906 -31.757812 20.265625 -31.84375 L 24.390625 -32.765625 C 25.265625 -32.972656 25.585938 -33.539062 25.359375 -34.46875 L 24.953125 -35.875 L 23.765625 -39.4375 L 22.859375 -42.453125 L 21.890625 -45.53125 L 21.453125 -46.796875 Z M 0.484375 -0.09375 L 0.53125 -1.53125 C 0.5 -2.113281 0.523438 -2.773438 0.609375 -3.515625 C 0.734375 -4.273438 0.796875 -5.035156 0.796875 -5.796875 C 0.703125 -7.867188 0.929688 -10.90625 1.484375 -14.90625 L 2.015625 -19.46875 L 2.546875 -24.6875 L 3.0625 -29.875 L 3.328125 -31.578125 L 3.59375 -33.296875 L 4.125 -38.640625 L 4.6875 -44.03125 L 5.046875 -46.9375 L 5.4375 -49.875 L 5.796875 -52.59375 L 6.1875 -55.3125 C 6.476562 -57.476562 6.640625 -59.289062 6.671875 -60.75 L 6.796875 -61.796875 L 6.96875 -62.859375 L 7.625 -68.375 C 7.71875 -69.195312 8.070312 -69.710938 8.6875 -69.921875 C 9.53125 -70.234375 10.242188 -70.859375 10.828125 -71.796875 L 11.09375 -72.15625 L 11.359375 -72.453125 C 11.679688 -72.773438 11.972656 -72.820312 12.234375 -72.59375 C 12.523438 -72.382812 12.960938 -72.164062 13.546875 -71.9375 L 14.25 -71.671875 L 14.875 -71.3125 C 15.425781 -70.9375 16.097656 -70.734375 16.890625 -70.703125 C 18.816406 -70.671875 20.25 -69.585938 21.1875 -67.453125 C 22.382812 -64.734375 23.695312 -60.800781 25.125 -55.65625 L 26.015625 -52.671875 L 26.796875 -49.6875 L 27.234375 -48.421875 L 27.671875 -47.1875 L 28.515625 -44.65625 L 29.34375 -42.0625 C 30.039062 -39.957031 30.550781 -38.234375 30.875 -36.890625 C 31.164062 -35.804688 31.601562 -34.691406 32.1875 -33.546875 L 32.8125 -32.015625 L 33.328125 -30.484375 L 35.53125 -25 L 35.796875 -24.46875 L 35.921875 -23.953125 C 35.984375 -23.066406 36.21875 -22.097656 36.625 -21.046875 L 37.15625 -19.734375 L 37.765625 -18.375 C 38.285156 -17.269531 38.84375 -15.957031 39.4375 -14.4375 L 40.875 -10.4375 C 41.34375 -9.175781 41.898438 -7.816406 42.546875 -6.359375 C 42.921875 -5.484375 43.179688 -4.546875 43.328125 -3.546875 C 43.390625 -3.140625 43.390625 -2.703125 43.328125 -2.234375 C 43.179688 -1.117188 42.539062 -0.476562 41.40625 -0.3125 C 40.90625 -0.21875 40.523438 -0.363281 40.265625 -0.75 L 39.21875 -2.1875 L 38.15625 -3.640625 C 37.3125 -4.773438 36.679688 -5.796875 36.265625 -6.703125 L 34.5625 -10.21875 L 32.890625 -13.734375 C 31.660156 -16.421875 30.664062 -18.816406 29.90625 -20.921875 L 28.765625 -24.171875 L 27.625 -27.40625 L 27.5 -27.859375 L 27.328125 -28.328125 C 27.117188 -28.859375 26.691406 -29.082031 26.046875 -29 C 23.679688 -28.675781 21.785156 -28.597656 20.359375 -28.765625 C 19.359375 -28.921875 18.695312 -28.863281 18.375 -28.59375 C 18.050781 -28.332031 17.816406 -27.707031 17.671875 -26.71875 L 14.953125 -9.609375 L 14.515625 -7.5 L 13.515625 -3.203125 C 12.984375 -0.566406 12.207031 1.507812 11.1875 3.03125 C 10.925781 3.4375 10.722656 4.003906 10.578125 4.734375 C 10.398438 5.671875 9.796875 6.519531 8.765625 7.28125 C 7.742188 8.007812 6.753906 8.347656 5.796875 8.296875 L 3.6875 8.203125 C 3.125 8.234375 2.597656 8.085938 2.109375 7.765625 L 1.484375 7.28125 L 0.875 6.703125 C 0.289062 6.148438 0.03125 5.347656 0.09375 4.296875 Z M 0.484375 -0.09375 "/></g></g><g transform="translate(527.051258, 171.802174)"><g><path d="M 19.078125 -19.125 C 18.992188 -15.09375 17.285156 -11.234375 13.953125 -7.546875 C 13.828125 -7.429688 13.738281 -7.269531 13.6875 -7.0625 C 13.625 -6.851562 13.625 -6.707031 13.6875 -6.625 C 13.800781 -6.414062 13.960938 -6.34375 14.171875 -6.40625 L 14.46875 -6.53125 L 14.734375 -6.671875 L 17.40625 -8.03125 C 18.457031 -8.550781 19.320312 -9.046875 20 -9.515625 C 25.382812 -13.234375 29.859375 -18.191406 33.421875 -24.390625 C 38.421875 -33.128906 40.234375 -41.476562 38.859375 -49.4375 C 37.890625 -54.90625 34.191406 -60.765625 27.765625 -67.015625 L 25.578125 -69.21875 C 24.691406 -70.0625 23.929688 -70.75 23.296875 -71.28125 C 21.503906 -72.769531 19.703125 -73.789062 17.890625 -74.34375 L 17.546875 -74.484375 L 17.234375 -74.703125 C 16.941406 -74.816406 16.691406 -74.785156 16.484375 -74.609375 C 16.316406 -74.429688 16.257812 -74.195312 16.3125 -73.90625 L 16.40625 -73.515625 L 16.53125 -73.15625 L 17.40625 -69.703125 L 18.328125 -66.234375 C 18.972656 -63.546875 19.382812 -61.207031 19.5625 -59.21875 C 20.113281 -52.132812 20.226562 -45.453125 19.90625 -39.171875 L 19.828125 -34.34375 L 19.875 -29.4375 C 19.875 -25.394531 19.609375 -21.957031 19.078125 -19.125 Z M 46.75 -34.90625 C 45.96875 -29.125 42.253906 -22.546875 35.609375 -15.171875 C 32.367188 -11.578125 28.410156 -8.679688 23.734375 -6.484375 C 21.066406 -5.265625 17.671875 -4.519531 13.546875 -4.25 L 13.03125 -4.25 L 12.453125 -4.203125 C 12.015625 -4.148438 11.769531 -3.976562 11.71875 -3.6875 C 11.363281 -2.28125 10.5 -1.429688 9.125 -1.140625 L 8.25 -0.96875 L 7.328125 -0.875 C 6.566406 -0.789062 5.984375 -0.660156 5.578125 -0.484375 C 3.992188 0.210938 2.925781 0.15625 2.375 -0.65625 C 2.132812 -0.945312 1.957031 -1.398438 1.84375 -2.015625 L 1.703125 -2.84375 L 1.53125 -3.6875 C 1.09375 -6.164062 0.945312 -9.144531 1.09375 -12.625 L 1.359375 -17.109375 L 1.625 -21.578125 C 1.832031 -26.140625 1.90625 -31.332031 1.84375 -37.15625 L 1.484375 -52.71875 C 1.460938 -54.644531 1.347656 -56.984375 1.140625 -59.734375 L 0.609375 -66.75 C 0.203125 -72.488281 0.128906 -77.1875 0.390625 -80.84375 C 0.453125 -81.863281 0.757812 -82.390625 1.3125 -82.421875 C 2.894531 -82.472656 3.859375 -83.476562 4.203125 -85.4375 L 4.296875 -85.875 L 4.4375 -86.3125 C 4.582031 -86.632812 4.84375 -86.796875 5.21875 -86.796875 C 5.570312 -86.796875 5.835938 -86.648438 6.015625 -86.359375 L 6.140625 -85.921875 L 6.234375 -85.4375 C 6.460938 -84.007812 7.351562 -83.132812 8.90625 -82.8125 C 9.894531 -82.570312 10.875 -82.070312 11.84375 -81.3125 C 12.488281 -80.851562 13.289062 -80.082031 14.25 -79 C 14.863281 -78.351562 15.640625 -77.957031 16.578125 -77.8125 L 20 -77.203125 L 23.375 -76.453125 C 25.863281 -75.867188 28.039062 -75.132812 29.90625 -74.25 C 31.082031 -73.695312 32.269531 -72.734375 33.46875 -71.359375 L 34.90625 -69.609375 C 35.46875 -68.929688 35.96875 -68.390625 36.40625 -67.984375 C 43.25 -61.523438 46.816406 -51.90625 47.109375 -39.125 L 47.109375 -36.890625 C 47.078125 -36.066406 46.957031 -35.40625 46.75 -34.90625 Z M 46.75 -34.90625 "/></g></g><g transform="translate(584.242849, 171.802174)"><g><path d="M 30.484375 -35 C 30.691406 -24.625 30.222656 -15.238281 29.078125 -6.84375 L 28.953125 -5.921875 L 28.765625 -5.09375 C 28.597656 -4.445312 28.25 -3.890625 27.71875 -3.421875 C 27.3125 -3.035156 27.269531 -2.785156 27.59375 -2.671875 L 28.03125 -2.625 L 28.515625 -2.625 L 31.53125 -2.453125 L 34.515625 -2.328125 L 35 -2.234375 L 35.4375 -2.15625 C 35.726562 -2.007812 35.875 -1.742188 35.875 -1.359375 C 35.875 -0.535156 35.421875 -0.0820312 34.515625 0 L 32.5 0.21875 L 30.484375 0.34375 C 28.847656 0.46875 27.503906 0.660156 26.453125 0.921875 C 24.492188 1.359375 21.640625 1.359375 17.890625 0.921875 L 13.640625 0.4375 C 12.054688 0.351562 10.625 0.457031 9.34375 0.75 C 9.019531 0.800781 8.769531 0.726562 8.59375 0.53125 L 8.375 0.171875 L 8.203125 -0.21875 C 7.960938 -1.0625 8.285156 -1.601562 9.171875 -1.84375 C 10.953125 -2.25 12.382812 -2.46875 13.46875 -2.5 C 14.925781 -2.582031 15.65625 -3.359375 15.65625 -4.828125 C 15.6875 -20.585938 14.148438 -43.757812 11.046875 -74.34375 C 10.898438 -75.976562 10.082031 -76.722656 8.59375 -76.578125 L 6.75 -76.578125 L 4.953125 -76.75 C 3.460938 -76.8125 2.25 -76.726562 1.3125 -76.5 C 0.84375 -76.375 0.476562 -76.488281 0.21875 -76.84375 C 0.0703125 -77.019531 0.0390625 -77.222656 0.125 -77.453125 L 0.484375 -77.984375 C 1.066406 -78.859375 1.972656 -79.28125 3.203125 -79.25 C 6.148438 -79.132812 10.210938 -79.398438 15.390625 -80.046875 L 21.484375 -80.84375 C 23.765625 -81.070312 25.800781 -81.1875 27.59375 -81.1875 L 29.078125 -81.1875 C 29.691406 -81.1875 30.191406 -81.128906 30.578125 -81.015625 C 31.648438 -80.804688 32.257812 -80.296875 32.40625 -79.484375 C 32.5 -78.804688 32.046875 -78.289062 31.046875 -77.9375 L 29.734375 -77.546875 L 28.421875 -77.234375 C 28.160156 -77.117188 27.75 -77.046875 27.1875 -77.015625 L 25.96875 -76.84375 L 25.484375 -76.71875 L 25.125 -76.453125 C 24.863281 -76.191406 24.894531 -75.898438 25.21875 -75.578125 C 26.125 -74.753906 26.679688 -73.671875 26.890625 -72.328125 L 27.0625 -70.484375 L 27.15625 -68.734375 L 28.296875 -60.359375 L 29.296875 -51.890625 C 30.023438 -45.453125 30.421875 -39.820312 30.484375 -35 Z M 30.484375 -35 "/></g></g><g transform="translate(628.890885, 171.802174)"><g><path d="M 35 -26.046875 C 35.113281 -29.003906 35.070312 -31.257812 34.875 -32.8125 C 34.78125 -33.6875 34.71875 -34.738281 34.6875 -35.96875 L 34.734375 -39.125 L 34.734375 -41.625 C 34.585938 -46.507812 34.585938 -52.019531 34.734375 -58.15625 L 34.953125 -61.53125 L 35.265625 -64.953125 L 35.390625 -69.078125 C 35.421875 -70.097656 35.507812 -70.929688 35.65625 -71.578125 C 35.800781 -72.046875 36.003906 -72.472656 36.265625 -72.859375 C 36.648438 -73.378906 37.117188 -73.566406 37.671875 -73.421875 L 42.1875 -72.328125 C 43.007812 -72.117188 43.757812 -71.753906 44.4375 -71.234375 C 44.925781 -70.796875 45.363281 -70.472656 45.75 -70.265625 C 47.007812 -69.585938 47.882812 -68.429688 48.375 -66.796875 L 50 -60.703125 C 50.144531 -60.148438 50.234375 -59.566406 50.265625 -58.953125 L 50.390625 -53.375 L 50.53125 -49.4375 L 50.578125 -45.484375 C 50.660156 -41.617188 50.570312 -38.632812 50.3125 -36.53125 L 50.265625 -36.1875 L 50.265625 -35.828125 C 50.296875 -35.597656 50.472656 -35.453125 50.796875 -35.390625 L 50.875 -35.21875 L 50.96875 -34.90625 L 50.921875 -34.03125 L 50.21875 -27.234375 L 50.140625 -26.96875 C 50.109375 -26.914062 50.035156 -26.914062 49.921875 -26.96875 C 49.921875 -26.96875 49.785156 -27.144531 49.515625 -27.5 L 49.171875 -25.21875 L 48.859375 -22.984375 C 48.628906 -21.054688 48.570312 -19.390625 48.6875 -17.984375 C 48.800781 -16.378906 48.671875 -14.476562 48.296875 -12.28125 L 48.078125 -10.125 L 47.984375 -9.203125 C 47.722656 -7.628906 46.800781 -6.988281 45.21875 -7.28125 C 42.707031 -7.75 40.820312 -8.273438 39.5625 -8.859375 C 37.976562 -9.585938 36.910156 -10.757812 36.359375 -12.375 L 35.875 -13.515625 L 35.390625 -14.6875 C 34.984375 -15.59375 34.738281 -16.382812 34.65625 -17.0625 L 34.46875 -17.5 L 34.25 -17.890625 L 28.765625 -26.9375 C 28.273438 -27.78125 27.675781 -28.890625 26.96875 -30.265625 L 23.515625 -37.375 L 22.453125 -39.515625 L 21.359375 -41.71875 L 20.609375 -43.15625 L 19.828125 -44.5625 L 19.6875 -44.65625 L 19.515625 -44.734375 C 19.367188 -44.679688 19.296875 -44.566406 19.296875 -44.390625 L 19.34375 -44 L 19.953125 -39.25 L 20.578125 -34.5625 C 21.015625 -31.757812 21.097656 -29.550781 20.828125 -27.9375 C 20.773438 -27.46875 20.789062 -26.867188 20.875 -26.140625 L 21.015625 -24.078125 L 20.921875 -22.015625 C 20.859375 -20.441406 20.640625 -18.453125 20.265625 -16.046875 L 19.828125 -13.078125 L 19.390625 -10.09375 C 19.273438 -9.1875 19.054688 -8.101562 18.734375 -6.84375 L 17.765625 -3.6875 L 16.9375 -0.75 C 16.726562 0.0390625 16.226562 0.507812 15.4375 0.65625 L 14.90625 0.75 C 13.707031 0.6875 12.613281 1.066406 11.625 1.890625 C 11.039062 2.359375 10.425781 2.269531 9.78125 1.625 C 9.488281 1.332031 9.09375 1.054688 8.59375 0.796875 L 7.1875 0.046875 C 6.457031 -0.304688 5.960938 -0.953125 5.703125 -1.890625 L 4.65625 -5.703125 L 3.59375 -9.515625 L 2.890625 -12.671875 C 2.691406 -13.847656 2.59375 -14.914062 2.59375 -15.875 C 2.613281 -16.894531 2.582031 -18.15625 2.5 -19.65625 L 2.234375 -23.375 L 2.015625 -28.515625 C 1.929688 -30.472656 1.769531 -32.164062 1.53125 -33.59375 L 1.40625 -34.734375 L 1.359375 -35.921875 L 0.75 -42.375 L 0.34375 -46.1875 L 0.171875 -50.046875 C 0.0546875 -56.710938 0.0703125 -62.34375 0.21875 -66.9375 L 0.390625 -70.96875 C 0.484375 -72.601562 0.515625 -73.945312 0.484375 -75 C 0.453125 -75.96875 0.9375 -76.628906 1.9375 -76.984375 L 3.734375 -77.5 L 5.53125 -78.03125 L 5.703125 -78.078125 C 6.546875 -78.253906 7.492188 -78.164062 8.546875 -77.8125 L 9.875 -77.28125 L 11.1875 -76.71875 C 12.207031 -76.300781 12.992188 -75.453125 13.546875 -74.171875 L 14.390625 -72.28125 C 14.710938 -71.519531 14.929688 -70.863281 15.046875 -70.3125 C 15.128906 -69.988281 15.304688 -69.679688 15.578125 -69.390625 C 16.160156 -68.691406 16.4375 -67.859375 16.40625 -66.890625 C 16.34375 -65.273438 16.925781 -63.609375 18.15625 -61.890625 C 18.6875 -61.179688 19.257812 -60.203125 19.875 -58.953125 L 22.890625 -52.71875 L 25.796875 -46.453125 L 27.59375 -42.453125 C 28.226562 -40.910156 28.753906 -39.535156 29.171875 -38.328125 C 29.984375 -35.878906 31.140625 -33.191406 32.640625 -30.265625 L 33.46875 -28.515625 L 34.296875 -26.71875 L 34.46875 -26.359375 C 34.59375 -26.242188 34.769531 -26.140625 35 -26.046875 Z M 35 -26.046875 "/></g></g><g transform="translate(688.626273, 171.802174)"><g><path d="M 47.0625 -31.71875 C 45.039062 -32.707031 40.929688 -33.085938 34.734375 -32.859375 C 34.179688 -32.765625 33.378906 -32.703125 32.328125 -32.671875 L 29.734375 -32.546875 C 27.578125 -32.398438 25.765625 -31.972656 24.296875 -31.265625 L 23.8125 -31.140625 L 23.296875 -30.96875 C 22.972656 -30.820312 22.828125 -30.539062 22.859375 -30.125 C 22.910156 -29.75 23.140625 -29.503906 23.546875 -29.390625 L 24.609375 -29.296875 C 26.179688 -29.066406 28.050781 -28.96875 30.21875 -29 L 33.03125 -29.078125 L 35.828125 -29.21875 C 37.492188 -29.269531 38.242188 -28.535156 38.078125 -27.015625 C 37.984375 -26.285156 37.921875 -25.289062 37.890625 -24.03125 L 37.8125 -21.046875 C 37.394531 -14.296875 36.296875 -8.566406 34.515625 -3.859375 C 33.640625 -1.546875 32.28125 -0.597656 30.4375 -1.015625 C 24.96875 -2.210938 21.359375 -4.972656 19.609375 -9.296875 C 17.179688 -15.265625 15.953125 -22.722656 15.921875 -31.671875 L 15.875 -43.734375 C 15.9375 -48.234375 16.054688 -52.265625 16.234375 -55.828125 L 16.53125 -59.34375 L 17.015625 -62.859375 C 17.421875 -65.804688 17.597656 -68.171875 17.546875 -69.953125 C 17.515625 -71.066406 18.007812 -72.09375 19.03125 -73.03125 C 19.445312 -73.40625 19.945312 -73.769531 20.53125 -74.125 L 22.1875 -75.046875 C 22.894531 -75.398438 23.523438 -75.296875 24.078125 -74.734375 L 24.6875 -73.953125 L 25.3125 -73.15625 C 26.363281 -72.070312 27.382812 -70.726562 28.375 -69.125 C 29.394531 -67.457031 30.421875 -65.320312 31.453125 -62.71875 L 32.671875 -59.390625 L 33.90625 -56.0625 L 34.21875 -55.484375 L 34.34375 -55.578125 L 34.390625 -55.65625 C 34.273438 -56.300781 34.421875 -57.148438 34.828125 -58.203125 L 35.265625 -59.4375 C 35.378906 -59.90625 35.410156 -60.34375 35.359375 -60.75 C 34.828125 -64.875 33.160156 -69.640625 30.359375 -75.046875 C 29.128906 -77.472656 27.15625 -79.023438 24.4375 -79.703125 C 21.945312 -80.316406 19.457031 -80.109375 16.96875 -79.078125 C 13.582031 -77.648438 10.71875 -75.8125 8.375 -73.5625 C 5.6875 -71.007812 3.992188 -68.226562 3.296875 -65.21875 C 2.003906 -59.601562 1.253906 -54.867188 1.046875 -51.015625 L 0.5625 -42.671875 L 0.21875 -34.390625 C 0.0703125 -28.066406 0.320312 -22.492188 0.96875 -17.671875 C 2.664062 -4.835938 9.316406 3.507812 20.921875 7.375 C 25.484375 8.863281 29.925781 8.507812 34.25 6.3125 C 38.289062 4.207031 40.804688 0.859375 41.796875 -3.734375 C 42.441406 -6.796875 42.632812 -10.566406 42.375 -15.046875 L 41.9375 -20.703125 L 41.53125 -26.359375 C 41.445312 -28.234375 42.078125 -29.210938 43.421875 -29.296875 L 45.21875 -29.609375 L 47.015625 -30 L 47.375 -30.09375 L 47.71875 -30.21875 C 47.925781 -30.3125 48.046875 -30.488281 48.078125 -30.75 C 48.097656 -31.070312 47.992188 -31.289062 47.765625 -31.40625 L 47.421875 -31.578125 Z M 47.0625 -31.71875 "/></g></g></g><path fill="#8ab530" d="M 71.800781 119.945312 L 37.789062 269.1875 C 36.671875 274.097656 33.082031 277.484375 29.789062 276.734375 L 11.847656 272.648438 C 8.542969 271.894531 6.785156 267.308594 7.90625 262.382812 L 41.917969 113.144531 C 43.039062 108.21875 46.613281 104.84375 49.917969 105.597656 L 67.863281 109.679688 C 71.167969 110.433594 72.925781 115.023438 71.800781 119.945312 " fill-opacity="1" fill-rule="nonzero"/><path fill="#f5cc40" d="M 46.019531 208.757812 L 34.964844 257.253906 C 34.1875 260.671875 30.785156 262.808594 27.367188 262.03125 L 20.441406 260.453125 C 17.023438 259.671875 14.886719 256.273438 15.660156 252.859375 L 26.714844 204.359375 C 27.4375 201.179688 29.746094 199 31.882812 199.484375 L 43.472656 202.125 C 45.609375 202.613281 46.742188 205.574219 46.019531 208.757812 " fill-opacity="1" fill-rule="nonzero"/><g clip-path="url(#d51767b83c)"><path fill="#ed586e" d="M 121.683594 82.191406 L 121.683594 265.875 C 121.683594 271.921875 117.585938 276.832031 112.546875 276.832031 L 85.058594 276.832031 C 80.019531 276.832031 75.933594 271.921875 75.933594 265.875 L 75.933594 82.191406 C 75.933594 76.132812 80.019531 71.238281 85.058594 71.238281 L 112.546875 71.238281 C 117.585938 71.238281 121.683594 76.132812 121.683594 82.191406 " fill-opacity="1" fill-rule="nonzero"/></g><path fill="#fcf8a8" d="M 121.683594 99.964844 L 121.683594 114.546875 L 75.933594 114.546875 L 75.933594 99.964844 L 121.683594 99.964844 " fill-opacity="1" fill-rule="nonzero"/><path fill="#fcf8a8" d="M 121.683594 241.175781 L 121.683594 253.269531 L 75.933594 253.269531 L 75.933594 241.175781 L 121.683594 241.175781 " fill-opacity="1" fill-rule="nonzero"/><path fill="#fcf8a8" d="M 112.332031 138.261719 C 112.332031 145.726562 106.277344 151.777344 98.808594 151.777344 C 91.339844 151.777344 85.285156 145.726562 85.285156 138.261719 C 85.285156 130.796875 91.339844 124.742188 98.808594 124.742188 C 106.277344 124.742188 112.332031 130.796875 112.332031 138.261719 " fill-opacity="1" fill-rule="nonzero"/><path fill="#5d80a1" d="M 213.742188 96.734375 L 213.742188 266.6875 C 213.742188 272.289062 205.925781 276.832031 196.277344 276.832031 L 143.707031 276.832031 C 134.070312 276.832031 126.238281 272.289062 126.238281 266.6875 L 126.238281 96.734375 C 126.238281 91.144531 134.070312 86.605469 143.707031 86.605469 L 196.277344 86.605469 C 205.925781 86.605469 213.742188 91.144531 213.742188 96.734375 " fill-opacity="1" fill-rule="nonzero"/><path fill="#a7ddc9" d="M 213.742188 230.191406 L 213.742188 256.628906 L 126.238281 256.628906 L 126.238281 230.191406 L 213.742188 230.191406 " fill-opacity="1" fill-rule="nonzero"/><path fill="#a7ddc9" d="M 199.195312 167.59375 L 199.195312 214.734375 L 140.792969 214.734375 L 140.792969 167.59375 L 199.195312 167.59375 " fill-opacity="1" fill-rule="nonzero"/><path fill="#f2802d" d="M 319.8125 271.003906 L 292.730469 275.722656 C 287.761719 276.585938 283.03125 273.261719 282.167969 268.292969 L 255.886719 117.496094 C 255.019531 112.527344 258.347656 107.796875 263.316406 106.933594 L 290.398438 102.222656 C 295.367188 101.355469 300.097656 104.679688 300.960938 109.648438 L 327.242188 260.445312 C 328.109375 265.414062 324.78125 270.140625 319.8125 271.003906 " fill-opacity="1" fill-rule="nonzero"/><path fill="#f5cc40" d="M 318.40625 251.773438 L 287.550781 257.140625 L 286.476562 250.980469 L 317.328125 245.609375 L 318.40625 251.773438 " fill-opacity="1" fill-rule="nonzero"/><path fill="#f5cc40" d="M 316.597656 241.421875 L 285.746094 246.792969 L 284.671875 240.628906 L 315.527344 235.257812 L 316.597656 241.421875 " fill-opacity="1" fill-rule="nonzero"/><path fill="#f5cc40" d="M 314.550781 229.667969 L 283.699219 235.035156 L 282.625 228.875 L 313.476562 223.503906 L 314.550781 229.667969 " fill-opacity="1" fill-rule="nonzero"/><path fill="#d73731" d="M 234.375 104.234375 C 242.097656 103.414062 248.351562 98.945312 251 93.117188 C 252.535156 94.5625 253.585938 96.507812 253.84375 98.714844 L 272.675781 270.378906 C 273.265625 275.453125 269.445312 280.058594 264.1875 280.621094 L 242.507812 282.925781 C 237.25 283.488281 232.464844 279.796875 231.875 274.722656 L 213.042969 103.058594 C 212.746094 100.507812 213.566406 98.078125 215.121094 96.214844 C 218.917969 101.75 226.324219 105.09375 234.375 104.234375 " fill-opacity="1" fill-rule="nonzero"/><path fill="#d73731" d="M 257.578125 91.613281 L 257.585938 91.691406 L 257.585938 91.695312 Z M 257.578125 91.613281 " fill-opacity="1" fill-rule="nonzero"/><path fill="#d73731" d="M 274.164062 277.683594 L 274.160156 277.6875 Z M 274.164062 277.683594 " fill-opacity="1" fill-rule="nonzero"/><path fill="#d73731" d="M 232.605469 282.113281 L 232.601562 282.109375 Z M 232.605469 282.113281 " fill-opacity="1" fill-rule="nonzero"/><path fill="#fafbec" d="M 233.746094 103.351562 C 239.832031 102.6875 244.699219 98.53125 246.699219 93.015625 C 247.933594 94.421875 248.796875 96.289062 249.035156 98.394531 L 266.648438 262.328125 C 267.195312 267.171875 264.253906 271.503906 260.109375 271.957031 L 243.023438 273.8125 C 238.878906 274.257812 235.042969 270.664062 234.492188 265.820312 L 216.878906 101.886719 C 216.605469 99.453125 217.210938 97.148438 218.40625 95.398438 C 221.496094 100.734375 227.398438 104.039062 233.746094 103.351562 " fill-opacity="1" fill-rule="nonzero"/><path fill="#ca961b" d="M 251.871094 91.6875 L 251.878906 91.765625 Z M 251.871094 91.6875 " fill-opacity="1" fill-rule="nonzero"/><path fill="#ca961b" d="M 267.941406 269.3125 L 267.941406 269.316406 L 267.9375 269.316406 Z M 267.941406 269.3125 " fill-opacity="1" fill-rule="nonzero"/><path fill="#d4d4c2" d="M 225.292969 110.148438 L 241.828125 258.566406 C 241.871094 258.9375 242.164062 259.203125 242.480469 259.167969 C 242.796875 259.128906 243.015625 258.800781 242.972656 258.429688 L 226.4375 110.011719 C 226.390625 109.640625 226.101562 109.375 225.785156 109.410156 C 225.46875 109.449219 225.25 109.777344 225.292969 110.148438 " fill-opacity="1" fill-rule="nonzero"/><path fill="#d4d4c2" d="M 232.347656 109.066406 L 248.886719 257.488281 C 248.929688 257.855469 249.21875 258.125 249.535156 258.085938 C 249.851562 258.050781 250.074219 257.722656 250.027344 257.351562 L 233.492188 108.933594 C 233.449219 108.5625 233.15625 108.296875 232.839844 108.332031 C 232.523438 108.367188 232.304688 108.699219 232.347656 109.066406 " fill-opacity="1" fill-rule="nonzero"/><path fill="#d4d4c2" d="M 230.667969 120.324219 L 245.382812 257.75 C 245.425781 258.117188 245.71875 258.386719 246.03125 258.351562 C 246.347656 258.3125 246.570312 257.984375 246.523438 257.617188 L 231.808594 120.1875 C 231.765625 119.820312 231.472656 119.550781 231.15625 119.589844 C 230.84375 119.625 230.625 119.957031 230.667969 120.324219 " fill-opacity="1" fill-rule="nonzero"/><path fill="#d4d4c2" d="M 238.0625 108.335938 L 254.601562 256.757812 C 254.644531 257.125 254.9375 257.394531 255.253906 257.355469 C 255.566406 257.320312 255.789062 256.992188 255.742188 256.621094 L 239.207031 108.203125 C 239.164062 107.832031 238.871094 107.566406 238.558594 107.601562 C 238.238281 107.640625 238.019531 107.96875 238.0625 108.335938 " fill-opacity="1" fill-rule="nonzero"/><path fill="#d4d4c2" d="M 241.257812 106.882812 L 258.03125 256.371094 C 258.074219 256.742188 258.367188 257.011719 258.683594 256.976562 C 258.996094 256.9375 259.21875 256.609375 259.171875 256.234375 L 242.402344 106.75 C 242.355469 106.378906 242.0625 106.109375 241.746094 106.144531 C 241.429688 106.179688 241.210938 106.511719 241.257812 106.882812 " fill-opacity="1" fill-rule="nonzero"/></svg>